<?xml version="1.0" encoding="UTF-8"?>
<svg version="1.1" xmlns="http://www.w3.org/2000/svg" width="2000" height="2000">
<path d="M0 0 C4.03138901 0.00153704 8.06277417 0.00142889 12.09416318 0.00050974 C12.77417591 0.00035651 13.45418865 0.00020327 14.15480782 0.0000454 C15.53843915 -0.00027449 16.92207048 -0.00059871 18.3057018 -0.00092719 C31.12713501 -0.00374444 43.94856094 -0.00055516 56.76999296 0.00487317 C67.6472279 0.0093367 78.52445215 0.00856156 89.40168691 0.00395441 C102.19172076 -0.00146079 114.98174833 -0.00346906 127.77178317 -0.00043333 C129.1491915 -0.00011495 130.52659982 0.00019943 131.90400815 0.00050974 C132.58081673 0.00066401 133.25762532 0.00081829 133.95494325 0.00097724 C138.60612208 0.00182193 143.25729663 0.00037291 147.90847516 -0.00196981 C192.46988108 -0.0213405 236.9771219 0.65451469 281.50349355 2.4468255 C282.28730523 2.47793798 283.07111691 2.50905046 283.87868047 2.54110575 C309.69890495 3.56802769 335.32452916 5.13191324 360.94123769 8.66948175 C368.67165901 9.73365565 376.3433487 10.50788338 384.12849355 11.0093255 C395.20136056 11.80433512 405.9083389 13.5416585 416.78620839 15.70122004 C419.72132833 16.25882367 422.66805151 16.67279288 425.62849355 17.0718255 C432.34655151 18.05430829 438.89003429 19.70580118 445.47932363 21.31547785 C450.7305239 22.59473187 455.95839982 23.71378833 461.2886498 24.61479425 C467.19447552 25.71954084 473.02778225 27.18546042 478.86530995 28.60209894 C481.01779004 29.12266768 483.17253526 29.63286842 485.3277123 30.142138 C492.15359781 31.77630127 498.78478092 33.61019641 505.34724355 36.13041925 C509.52869805 37.67443334 513.79871689 38.90971696 518.06599355 40.19291925 C520.51575183 40.96165851 522.87311374 41.80429409 525.25349355 42.7593255 C528.13615011 43.89546688 530.88597672 44.4977878 533.94099355 45.0093255 C538.66508107 45.86890718 542.34977187 47.6518446 546.55818105 49.907763 C549.83842983 51.51212144 553.17850576 52.41637114 556.6870873 53.38823175 C559.71256872 54.33711016 562.39676584 55.68269037 565.1948998 57.157763 C568.96602107 59.12598914 572.85760227 60.73542286 576.89411855 62.06791925 C580.04802813 63.12828541 583.11316336 64.30841951 586.19099355 65.5718255 C587.20419667 65.98303644 588.2173998 66.39424738 589.26130605 66.81791925 C591.85376769 68.03471532 593.81704743 69.38937154 596.06599355 71.1343255 C598.3927122 72.14962091 600.72633825 73.14920748 603.06599355 74.1343255 C603.87036855 74.6293255 604.67474355 75.1243255 605.50349355 75.6343255 C608.28332684 77.26154499 611.04004668 78.28880091 614.0620873 79.37260675 C616.83491182 80.42660438 619.44199151 81.75672443 622.06599355 83.1343255 C622.06599355 83.7943255 622.06599355 84.4543255 622.06599355 85.1343255 C623.07661855 85.3612005 624.08724355 85.5880755 625.12849355 85.8218255 C628.74513228 86.8489509 631.17289195 88.52584255 634.1323998 90.78666925 C636.27793329 92.28204108 638.45771695 93.3804822 640.81599355 94.5093255 C645.65854868 96.84201975 650.08430811 99.62932738 654.58161855 102.564013 C657.17915903 104.26372051 657.17915903 104.26372051 660.56599355 105.8843255 C663.06599355 107.1343255 663.06599355 107.1343255 664.4448998 108.56010675 C666.31757278 110.37863016 668.18587068 111.37979351 670.50349355 112.5718255 C673.93404667 114.41477637 676.39957019 116.2703893 679.06599355 119.1343255 C681.19908547 120.36944629 681.19908547 120.36944629 683.06599355 121.1343255 C683.06599355 121.7943255 683.06599355 122.4543255 683.06599355 123.1343255 C684.14880605 123.536513 684.14880605 123.536513 685.25349355 123.9468255 C690.58820066 126.19925739 693.99085934 129.0591913 698.06599355 133.1343255 C699.72547502 134.14620445 701.39179917 135.1469801 703.06599355 136.1343255 C704.39932688 137.46765884 705.73266021 138.80099217 707.06599355 140.1343255 C709.19908547 141.36944629 709.19908547 141.36944629 711.06599355 142.1343255 C711.06599355 142.7943255 711.06599355 143.4543255 711.06599355 144.1343255 C713.39813503 145.34060558 715.56241493 146.2997993 718.06599355 147.1343255 C719.75533277 148.77800691 721.41859279 150.4486131 723.06599355 152.1343255 C725.06264952 153.80499683 727.06250389 155.47185536 729.06599355 157.1343255 C730.39932688 158.46765884 731.73266021 159.80099217 733.06599355 161.1343255 C733.87036855 161.7737005 734.67474355 162.4130755 735.50349355 163.0718255 C738.22239709 165.26021129 740.59996193 167.66829388 743.06599355 170.1343255 C744.05599355 170.7943255 745.04599355 171.4543255 746.06599355 172.1343255 C746.06599355 173.1243255 746.06599355 174.1143255 746.06599355 175.1343255 C746.6486498 175.40116144 747.23130605 175.66799738 747.83161855 175.94291925 C755.01223195 179.77174284 761.17368173 186.74569491 766.06599355 193.1343255 C766.06599355 193.7943255 766.06599355 194.4543255 766.06599355 195.1343255 C767.05599355 195.1343255 768.04599355 195.1343255 769.06599355 195.1343255 C770.31963449 196.81684361 771.56471774 198.50797588 772.7261498 200.25541925 C774.17162325 202.39920734 774.17162325 202.39920734 776.87849355 204.8843255 C779.06599355 207.1343255 779.06599355 207.1343255 779.06599355 210.1343255 C779.63447011 210.19362238 780.20294667 210.25291925 780.7886498 210.314013 C784.06776021 211.4951677 785.36540202 213.53946557 787.50349355 216.2593255 C788.28853261 217.25190363 789.07357167 218.24448175 789.8823998 219.267138 C791.60799932 221.53295205 793.2986666 223.80811165 794.94099355 226.1343255 C796.83753505 229.00596856 796.83753505 229.00596856 798.6402123 230.66166925 C800.06599355 232.1343255 800.06599355 232.1343255 801.00349355 234.6968255 C802.29303658 237.65518894 803.24461026 237.81180209 806.06599355 239.1343255 C806.76750507 240.44965961 807.4312528 241.78550142 808.06599355 243.1343255 C809.00378652 244.04891535 809.00378652 244.04891535 809.9605248 244.98198175 C812.06096612 247.12918615 813.31526113 249.07518263 814.75349355 251.6968255 C817.08470905 255.72454899 819.68353653 259.20864965 822.69099355 262.7593255 C831.06599355 272.71611303 831.06599355 272.71611303 831.06599355 278.1343255 C832.05599355 278.4643255 833.04599355 278.7943255 834.06599355 279.1343255 C835.12002517 281.10638467 836.11249116 283.11174468 837.06599355 285.1343255 C838.28945444 286.98547503 839.54078857 288.81843361 840.81599355 290.6343255 C844.65102992 296.27740849 847.63292452 302.04296466 850.5230248 308.20073175 C851.88121264 310.78300789 852.98594433 312.18866149 855.06599355 314.1343255 C855.81519521 315.82817275 856.55985242 317.52478008 857.2495873 319.2437005 C858.30223278 321.68140582 859.61871662 323.90377319 861.00349355 326.1655755 C862.22169335 328.42282808 863.20056974 330.75607613 864.19587636 333.11821222 C865.84529508 336.94001352 867.65375294 340.68803862 869.44099355 344.4468255 C869.84020009 345.29132257 870.23940663 346.13581964 870.65071034 347.00590754 C872.64922996 351.2191787 874.69817289 355.38641385 876.87849355 359.5093255 C879.22472968 364.10603304 880.5335798 368.88563978 881.96443105 373.829638 C883.43973238 378.255542 885.52740627 382.23638439 887.6870873 386.360888 C889.24161032 389.48754903 890.33470741 392.59138158 891.3511498 395.923388 C892.1489058 398.39076448 893.12448407 400.74382675 894.12849355 403.1343255 C895.39566058 406.23555009 896.36650695 409.15973427 897.00349355 412.4468255 C897.76195278 416.30006926 899.03466343 419.74285083 900.50349355 423.3843255 C902.697578 428.87918803 904.15044987 434.26448683 905.29255605 440.064013 C905.98858569 443.21268657 905.98858569 443.21268657 907.49568105 446.282763 C909.71999284 451.25499533 910.54011811 456.56301033 911.56599355 461.8843255 C912.93734101 468.89146865 914.46459773 475.77170977 916.39655995 482.64653254 C917.29355322 485.97999768 917.91266214 489.29495769 918.50349355 492.6968255 C919.39329763 497.70197345 920.3924493 502.65779823 921.54914784 507.60820246 C923.8625557 517.516407 925.35595303 527.44844005 926.6895287 537.53007746 C927.08667652 540.27740282 927.5742576 543.00008964 928.06599355 545.73198175 C929.22452667 552.58927486 929.7586695 559.46917986 930.27064443 566.39692926 C930.57014998 570.44057613 930.88798705 574.48277199 931.20661855 578.5249505 C931.27353902 579.37599863 931.34045949 580.22704676 931.40940785 581.10388422 C932.37243529 593.18609466 933.54553767 605.24989662 934.70808339 617.31425714 C934.79076467 618.1824206 934.87344594 619.05058405 934.95863271 619.94505548 C935.10997038 621.53377409 935.26329667 623.12230572 935.41944814 624.71055841 C936.68665049 638.05260111 937.25157948 651.41963243 937.59236073 664.81181574 C937.61320194 665.6052939 937.63404315 666.39877205 937.65551591 667.216295 C937.81931973 673.47908013 937.9687607 679.74215268 938.11286855 686.00541925 C938.13498245 686.95993754 938.15709636 687.91445583 938.17988038 688.89789891 C939.43668281 743.67586029 939.37167737 798.46201071 939.32491618 853.25086467 C939.31598233 863.92728399 939.31763294 874.60365891 939.32673573 885.28007746 C939.37190114 939.84048855 939.39781287 994.39691133 938.17536855 1048.9468255 C938.1557522 1049.84965242 938.13613585 1050.75247933 938.11592507 1051.68266463 C937.46704214 1081.52971467 935.93080524 1111.1841885 932.52644277 1140.86039972 C931.47490834 1150.03367452 930.69927396 1159.16137001 930.19099355 1168.3843255 C929.46954384 1180.10024071 927.81497906 1191.33737761 925.49909902 1202.82866144 C924.8881731 1206.08096379 924.5044367 1209.34750824 924.12849355 1212.6343255 C923.2354989 1219.85004117 921.62342344 1226.8422841 919.95954823 1233.9155755 C918.3310204 1240.85431038 916.95433761 1247.79937586 915.7417748 1254.8218255 C915.06599355 1258.1343255 915.06599355 1258.1343255 914.0620873 1261.12260675 C912.94194962 1264.50937598 912.38516668 1267.80097889 911.81599355 1271.3218255 C910.2808074 1280.1338562 907.59521432 1288.47637778 904.78279042 1296.95122004 C903.76861002 1300.04004878 902.82230505 1303.14837758 901.87849355 1306.2593255 C900.5885394 1310.48245338 899.23759878 1314.67415763 897.77693105 1318.84135675 C897.16681334 1320.80915398 896.66571227 1322.81016978 896.1870873 1324.814013 C895.03681099 1329.48497963 893.43645786 1333.94465697 891.75349355 1338.4468255 C891.44081532 1339.29003351 891.1281371 1340.13324152 890.80598378 1341.00200129 C888.88216454 1346.12988096 886.77560738 1351.10408683 884.41755605 1356.048388 C883.31273876 1358.5709477 882.33737938 1361.07077905 881.40193105 1363.657763 C877.38597477 1374.7437515 872.73686936 1385.12567251 867.10285878 1395.49467707 C864.6590846 1399.99902889 862.59095511 1404.22451937 861.06599355 1409.1343255 C860.10943133 1411.03185382 859.10903648 1412.9079243 858.06599355 1414.7593255 C855.97079747 1418.47218557 855.97079747 1418.47218557 854.06599355 1422.282763 C853.06599355 1424.1343255 853.06599355 1424.1343255 851.5777123 1425.57573175 C849.65300562 1427.56011926 848.91864364 1429.51463339 847.87849355 1432.0718255 C844.7419378 1439.24382798 840.63727978 1446.56303927 835.06599355 1452.1343255 C834.75661855 1452.9799505 834.44724355 1453.8255755 834.12849355 1454.6968255 C833.77786855 1455.5012005 833.42724355 1456.3055755 833.06599355 1457.1343255 C832.07599355 1457.4643255 831.08599355 1457.7943255 830.06599355 1458.1343255 C829.39366085 1460.46603253 828.72792464 1462.79964435 828.06599355 1465.1343255 C826.0777123 1468.23198175 826.0777123 1468.23198175 823.75349355 1471.1968255 C822.95040761 1472.23194269 822.14732167 1473.26705988 821.3198998 1474.33354425 C819.63896931 1476.42232616 817.94192785 1478.47995516 816.19099355 1480.5093255 C813.97198182 1483.25045764 812.55306967 1485.94773381 811.06599355 1489.1343255 C810.40599355 1490.1243255 809.74599355 1491.1143255 809.06599355 1492.1343255 C808.40599355 1492.1343255 807.74599355 1492.1343255 807.06599355 1492.1343255 C806.81849355 1492.7118255 806.57099355 1493.2893255 806.31599355 1493.8843255 C805.06599355 1496.1343255 805.06599355 1496.1343255 803.12849355 1498.0093255 C800.72490506 1500.48575001 799.48652649 1503.00915304 798.06599355 1506.1343255 C797.40599355 1506.1343255 796.74599355 1506.1343255 796.06599355 1506.1343255 C795.88036855 1506.8149505 795.69474355 1507.4955755 795.50349355 1508.1968255 C793.8386453 1511.59890671 791.82164623 1513.47828491 789.1089623 1516.06791925 C786.83475627 1518.3682156 784.83879196 1520.79786698 782.81599355 1523.3218255 C765.3115938 1545.05245875 765.3115938 1545.05245875 759.06599355 1547.1343255 C758.36448203 1548.44965961 757.70073429 1549.78550142 757.06599355 1551.1343255 C755.56599355 1552.8843255 755.56599355 1552.8843255 754.06599355 1554.1343255 C753.40599355 1554.1343255 752.74599355 1554.1343255 752.06599355 1554.1343255 C751.83911855 1554.6912005 751.61224355 1555.2480755 751.37849355 1555.8218255 C748.3548453 1561.14920575 742.89754311 1565.25990736 738.44099355 1569.4468255 C737.8686498 1569.99661066 737.29630605 1570.54639582 736.70661855 1571.11284113 C732.41037437 1575.1343255 732.41037437 1575.1343255 729.06599355 1575.1343255 C728.84556386 1575.68862238 728.62513417 1576.24291925 728.3980248 1576.814013 C726.6327259 1579.8890498 724.37699437 1581.88077942 721.75349355 1584.2593255 C720.80861073 1585.12815363 719.86372792 1585.99698175 718.8902123 1586.892138 C716.28480152 1588.96061073 714.20474856 1590.11665995 711.06599355 1591.1343255 C711.06599355 1591.7943255 711.06599355 1592.4543255 711.06599355 1593.1343255 C710.17911855 1593.5262005 709.29224355 1593.9180755 708.37849355 1594.3218255 C704.87067764 1596.24119647 702.85219778 1598.28332583 700.06599355 1601.1343255 C695.60552622 1604.88651447 691.15845542 1608.1546366 686.01130605 1610.907763 C683.33423456 1612.59571571 680.9924718 1614.6045467 678.56599355 1616.6343255 C668.37159487 1625.1343255 668.37159487 1625.1343255 663.06599355 1625.1343255 C662.83911855 1625.7530755 662.61224355 1626.3718255 662.37849355 1627.0093255 C660.65716835 1629.79623297 659.08381334 1629.9401311 656.06599355 1631.1343255 C654.34753569 1632.23318531 652.65984185 1633.38140516 651.00349355 1634.5718255 C650.16689198 1635.16866144 649.33029042 1635.76549738 648.4683373 1636.38041925 C646.97812553 1637.468395 645.50623155 1638.58257242 644.06599355 1639.735888 C641.13508467 1641.78523445 637.95026781 1642.77842542 634.6011498 1643.97416925 C631.67463077 1645.31342372 629.57030923 1647.12097749 627.06599355 1649.1343255 C625.02996493 1650.22682867 622.96600347 1651.26873073 620.87849355 1652.2593255 C616.64024372 1654.22602199 616.64024372 1654.22602199 613.06599355 1657.1343255 C611.56140564 1657.70037905 610.03631459 1658.21240725 608.50349355 1658.6968255 C603.35816642 1660.49233028 598.75798245 1662.82765151 594.00349355 1665.4468255 C585.92523727 1669.86703779 577.63581012 1673.23600569 569.00593495 1676.41606379 C563.91004407 1678.30281322 558.84559162 1680.2263673 554.00349355 1682.6968255 C550.88049818 1684.22509983 547.77861325 1685.26539157 544.47224355 1686.31791925 C542.02801475 1687.14721117 539.68923608 1688.12107423 537.31599355 1689.1343255 C532.39105977 1691.15324246 527.42157296 1692.23452853 522.23005605 1693.3530755 C518.47240896 1694.2808896 515.06868876 1695.65491885 511.5152123 1697.1655755 C508.0742579 1698.52659096 504.55818768 1699.42578505 500.98005605 1700.3530755 C497.83297593 1701.19679672 494.73603926 1702.15533736 491.62849355 1703.1343255 C483.17236428 1705.75933246 474.66256931 1707.83662347 465.98127675 1709.55424738 C460.23283491 1710.69806262 454.49379882 1711.88798073 448.75349355 1713.0718255 C446.90981191 1713.44984308 446.90981191 1713.44984308 445.02888417 1713.83549738 C439.04343993 1715.07048878 433.07925515 1716.3533468 427.1323998 1717.76323175 C422.51229528 1718.84164317 418.0318527 1719.64008699 413.31599355 1720.1343255 C408.55653216 1720.66720906 403.88761222 1721.31282301 399.18113637 1722.21597528 C390.47293734 1723.88113162 381.83733387 1724.81304256 372.99839711 1725.41441584 C368.90622362 1725.69358142 364.81629495 1726.0028544 360.7261498 1726.31010675 C359.44111814 1726.40584986 359.44111814 1726.40584986 358.13012624 1726.50352716 C345.98705472 1727.42257242 333.86760097 1728.61136728 321.74616933 1729.77665949 C320.87879643 1729.85930552 320.01142354 1729.94195154 319.11776662 1730.02710199 C317.52865804 1730.17867186 315.93971455 1730.33199198 314.35101247 1730.48776484 C301.48588688 1731.71486534 288.61633231 1732.32839495 275.70051503 1732.66069269 C274.91699894 1732.6815339 274.13348285 1732.70237511 273.32622385 1732.72384787 C267.13427604 1732.88789471 260.94203133 1733.03722144 254.7495873 1733.1812005 C253.80543108 1733.20331441 252.86127486 1733.22542831 251.88850784 1733.24821234 C197.29203798 1734.51465591 142.68649272 1734.43983474 88.07891624 1734.39324814 C77.40279999 1734.38431828 66.72672816 1734.38596094 56.05061269 1734.39506769 C1.27077532 1734.44043995 -53.5043553 1734.45627368 -108.2738502 1733.23979425 C-109.18915531 1733.22005076 -110.10446042 1733.20030727 -111.04750204 1733.1799655 C-138.97369112 1732.57698387 -166.7151776 1731.21614948 -194.51609874 1728.37645197 C-198.43812482 1727.98370484 -202.36365116 1727.63124826 -206.2894752 1727.27885675 C-212.754077 1726.69562517 -219.2147517 1726.07855077 -225.67472911 1725.44584894 C-228.77420446 1725.14959946 -231.87464603 1724.87537585 -234.9769752 1724.610888 C-244.18529493 1723.81519659 -253.13641699 1722.68443914 -262.1957252 1720.845263 C-265.83525987 1720.1531049 -269.4419809 1719.6818929 -273.12150645 1719.2593255 C-280.26307826 1718.36286238 -287.13478229 1716.74197703 -294.11784434 1715.01933527 C-299.25010891 1713.75787891 -304.35621799 1712.62569741 -309.55900645 1711.6968255 C-341.5665801 1705.89217332 -341.5665801 1705.89217332 -356.28556895 1700.1499505 C-358.53451604 1699.28752242 -360.65147135 1698.65119038 -362.99650645 1698.1343255 C-366.59391215 1697.33319019 -369.88975659 1696.00361765 -373.30900645 1694.6343255 C-377.23488646 1693.07844679 -380.89379746 1691.82410534 -385.05900645 1691.1343255 C-389.88130454 1690.3136751 -393.88118997 1688.47490753 -398.26994395 1686.360888 C-400.70055646 1685.24180835 -403.07103425 1684.36939585 -405.62150645 1683.5718255 C-408.44555643 1682.68341611 -410.95531206 1681.66476054 -413.55900645 1680.2593255 C-417.14162779 1678.38037733 -420.758298 1677.20317882 -424.62150645 1676.0093255 C-434.0573458 1673.04349885 -442.78206902 1668.59229855 -451.64201427 1664.24565363 C-454.421674 1662.89786804 -457.23288477 1661.63138206 -460.05900645 1660.3843255 C-464.67491093 1658.3148739 -469.08332203 1655.93646235 -473.5004127 1653.47416925 C-475.36390313 1652.44820261 -477.26681478 1651.49355227 -479.18400645 1650.5718255 C-481.43860809 1649.39328374 -483.23075667 1648.21208161 -485.24650645 1646.6968255 C-487.7861084 1644.82262144 -490.20108383 1643.51318925 -493.12150645 1642.3218255 C-499.24129513 1639.75276746 -504.48010505 1635.86791916 -509.93400645 1632.1343255 C-513.52780572 1629.8124889 -517.17456131 1627.58410384 -520.85588145 1625.40385675 C-527.94634707 1621.15466623 -534.42520643 1616.60175058 -540.86369395 1611.4312005 C-544.11369354 1608.9999031 -547.3953515 1607.111683 -550.93400645 1605.1343255 C-552.62150645 1603.5718255 -552.62150645 1603.5718255 -553.93400645 1602.1343255 C-554.65588145 1601.6187005 -555.37775645 1601.1030755 -556.12150645 1600.5718255 C-557.01869395 1599.860263 -557.01869395 1599.860263 -557.93400645 1599.1343255 C-557.93400645 1598.4743255 -557.93400645 1597.8143255 -557.93400645 1597.1343255 C-558.65201427 1596.88940363 -559.37002208 1596.64448175 -560.1097877 1596.392138 C-563.28100189 1594.97978535 -565.47598491 1593.25235264 -568.12150645 1591.0093255 C-571.81142676 1587.9119835 -575.52178128 1584.86202422 -579.30900645 1581.8843255 C-582.7468999 1579.14374064 -585.86323651 1576.28590519 -588.93400645 1573.1343255 C-590.25953823 1571.95880247 -591.59359823 1570.79285677 -592.93400645 1569.6343255 C-596.06854639 1566.91733216 -599.0385104 1564.1080782 -601.93400645 1561.1343255 C-604.47501207 1558.5281659 -606.97069298 1556.10481677 -609.80900645 1553.8218255 C-613.61754525 1550.70755159 -616.99258285 1547.07652932 -619.93400645 1543.1343255 C-619.93400645 1542.4743255 -619.93400645 1541.8143255 -619.93400645 1541.1343255 C-620.80025645 1541.0724505 -620.80025645 1541.0724505 -621.68400645 1541.0093255 C-625.04288226 1539.70309602 -626.00696195 1537.11248519 -627.93400645 1534.1343255 C-629.59293828 1532.79138069 -631.2587725 1531.45687863 -632.93400645 1530.1343255 C-633.61771095 1528.80964804 -634.28364831 1527.47568918 -634.93400645 1526.1343255 C-636.57768786 1524.44498628 -638.24829405 1522.78172626 -639.93400645 1521.1343255 C-641.51491794 1519.3048186 -643.06448082 1517.45353867 -644.6019752 1515.5874505 C-645.89197555 1514.00653368 -645.89197555 1514.00653368 -647.93400645 1513.1343255 C-650.93400645 1508.6343255 -650.93400645 1508.6343255 -650.93400645 1506.1343255 C-651.92400645 1505.8043255 -652.91400645 1505.4743255 -653.93400645 1505.1343255 C-654.96012594 1503.48361155 -655.95708788 1501.81462544 -656.93400645 1500.1343255 C-657.63525645 1499.4330755 -658.33650645 1498.7318255 -659.05900645 1498.0093255 C-660.93400645 1496.1343255 -660.93400645 1496.1343255 -661.93400645 1493.1343255 C-662.69713145 1492.3918255 -663.46025645 1491.6493255 -664.24650645 1490.8843255 C-667.94286735 1487.10200272 -670.24908534 1483.18908884 -671.93400645 1478.1343255 C-672.92400645 1477.8043255 -673.91400645 1477.4743255 -674.93400645 1477.1343255 C-676.33112919 1475.17835367 -677.65328274 1473.1684161 -678.93400645 1471.1343255 C-679.80345837 1469.94275737 -680.67853899 1468.75527736 -681.55900645 1467.5718255 C-683.51785797 1464.8701679 -684.73956863 1462.25823981 -685.93400645 1459.1343255 C-686.59400645 1458.8043255 -687.25400645 1458.4743255 -687.93400645 1458.1343255 C-688.93400645 1456.1343255 -689.93400645 1454.1343255 -690.93400645 1452.1343255 C-692.22831008 1450.30137456 -693.56651003 1448.51739614 -694.9457252 1446.74760675 C-695.93400645 1445.1343255 -695.93400645 1445.1343255 -695.93400645 1442.1343255 C-696.59400645 1442.1343255 -697.25400645 1442.1343255 -697.93400645 1442.1343255 C-698.26400645 1440.8143255 -698.59400645 1439.4943255 -698.93400645 1438.1343255 C-699.59400645 1438.1343255 -700.25400645 1438.1343255 -700.93400645 1438.1343255 C-701.55275645 1436.3399505 -701.55275645 1436.3399505 -702.18400645 1434.5093255 C-703.24216357 1431.65581177 -704.26834441 1429.63788429 -705.99650645 1427.0718255 C-708.21281924 1423.71160934 -709.00157878 1421.0194408 -709.93400645 1417.1343255 C-710.59400645 1417.1343255 -711.25400645 1417.1343255 -711.93400645 1417.1343255 C-712.70750427 1415.6148456 -713.47765125 1414.09365984 -714.24650645 1412.5718255 C-714.67576427 1411.72491144 -715.10502208 1410.87799738 -715.5472877 1410.00541925 C-716.81829493 1407.37389725 -717.96720105 1404.70983818 -719.10612559 1402.01933527 C-720.61571987 1398.58212577 -722.31049865 1395.23757294 -723.99650645 1391.8843255 C-724.34777598 1391.17791925 -724.69904552 1390.471513 -725.06095958 1389.7437005 C-726.55882416 1386.75363434 -728.07667907 1383.92031658 -729.93400645 1381.1343255 C-730.61525351 1379.13924483 -731.27827854 1377.13793858 -731.93400645 1375.1343255 C-732.88499857 1372.67618069 -733.87014744 1370.233405 -734.8597877 1367.7905755 C-735.57447854 1366.02333999 -736.28026225 1364.25247552 -736.9769752 1362.4780755 C-738.38971404 1358.88398131 -739.80364458 1355.39003533 -741.55900645 1351.9468255 C-742.93400645 1349.1343255 -742.93400645 1349.1343255 -743.80900645 1345.9468255 C-744.78353557 1342.64425461 -745.9478782 1339.90706252 -747.43400645 1336.8218255 C-749.48131118 1332.4474971 -750.55622723 1328.51887295 -751.34806895 1323.782763 C-752.28887723 1319.53030961 -754.01816885 1315.60885329 -755.63713145 1311.57573175 C-757.40356045 1306.88831023 -758.70612387 1302.11098527 -760.02775645 1297.282763 C-760.75605127 1294.75256635 -761.56622774 1292.37913335 -762.55900645 1289.9468255 C-764.0592819 1286.1359654 -764.67534851 1282.31613656 -765.3441627 1278.28666925 C-766.01280567 1274.71319325 -766.89473197 1271.21306517 -767.80900645 1267.6968255 C-769.61635463 1260.70020371 -771.05975418 1253.6633661 -772.42912364 1246.5693841 C-773.46683209 1241.26565419 -774.67958251 1236.04613633 -776.05900645 1230.8218255 C-777.64871301 1224.72192875 -778.63619992 1218.68312019 -779.3676002 1212.423388 C-779.77300595 1209.12460702 -780.31754638 1205.86616094 -780.9066627 1202.595263 C-782.75963511 1192.29901372 -784.21285849 1182.29883639 -784.50285411 1171.83842707 C-784.85456645 1161.67826633 -786.15444761 1151.61653753 -787.38713145 1141.53349543 C-790.04546118 1119.67127382 -791.34993579 1097.89590098 -791.99650645 1075.8843255 C-792.0747432 1073.41425628 -792.15351855 1070.94420406 -792.23283458 1068.47416925 C-792.41651888 1062.65374168 -792.58409047 1056.83303252 -792.74372476 1051.01188833 C-792.84702048 1047.25306799 -792.95215842 1043.49433043 -793.06305194 1039.73572588 C-793.97359252 1008.62543243 -794.08418686 977.52529603 -794.06930635 946.40362622 C-794.0669861 941.41418421 -794.06675162 936.42474561 -794.06782222 931.43530321 C-794.06797545 930.71281163 -794.06812868 929.99032006 -794.06828656 929.2459348 C-794.06860643 927.77613394 -794.06893065 926.30633308 -794.06925915 924.83653223 C-794.07208027 911.19825092 -794.06888078 897.55997643 -794.06345879 883.92169624 C-794.05899483 872.33656339 -794.05976997 860.75144059 -794.06437755 849.16630793 C-794.0697855 835.56326825 -794.07180491 821.96023449 -794.06876528 808.35719389 C-794.06844689 806.89385045 -794.06813251 805.43050701 -794.06782222 803.96716356 C-794.06766794 803.24802193 -794.06751367 802.52888029 -794.06735472 801.78794648 C-794.06650792 796.83178052 -794.06793074 791.8756185 -794.07030177 786.91945314 C-794.08375724 756.12755851 -793.92486614 725.35984109 -793.05738711 694.57880354 C-792.89756687 688.89996526 -792.76264859 683.22057806 -792.62727141 677.54111338 C-791.82953045 645.09536665 -790.30067599 612.87977158 -786.09799266 580.68229914 C-785.25431696 574.19661682 -784.72158439 567.85518927 -784.62150645 561.3218255 C-784.28406366 550.43134652 -782.23849973 539.98639501 -780.1254127 529.3218255 C-779.19898534 524.6356061 -778.46992163 520.00451617 -777.93400645 515.2593255 C-776.99042647 507.41128044 -775.06231063 499.83466544 -773.15275645 492.17729425 C-772.11559184 487.98484623 -771.23452571 483.77728098 -770.40763927 479.53886652 C-764.43032337 449.19320456 -764.43032337 449.19320456 -759.0082252 435.1343255 C-757.34181624 430.48049974 -756.01946105 425.72853143 -754.68425059 420.97050714 C-753.69361011 417.49140991 -752.56411562 414.35220335 -750.93400645 411.1343255 C-750.61862307 409.62210262 -750.35053384 408.09951369 -750.12150645 406.5718255 C-749.19712552 401.60782709 -747.41592904 397.4736797 -745.23088145 392.94291925 C-743.53036289 389.26016972 -742.22173862 385.48291202 -740.92619395 381.642138 C-739.93400645 379.1343255 -739.93400645 379.1343255 -738.4379127 376.704638 C-736.74688828 373.81452353 -735.90253913 371.10404679 -734.99650645 367.8843255 C-732.89012343 360.80719769 -730.47219719 354.3961275 -726.43400645 348.1968255 C-724.10444077 344.60364692 -722.61322149 340.96554233 -721.0941627 336.97416925 C-717.44843428 328.05011349 -712.72811146 319.48420581 -707.93400645 311.1343255 C-707.37713145 310.1237005 -706.82025645 309.1130755 -706.24650645 308.0718255 C-705.81338145 307.4324505 -705.38025645 306.7930755 -704.93400645 306.1343255 C-704.27400645 306.1343255 -703.61400645 306.1343255 -702.93400645 306.1343255 C-702.76900645 305.0824505 -702.60400645 304.0305755 -702.43400645 302.9468255 C-701.36413309 298.58079816 -699.26370719 294.93566207 -696.93400645 291.1343255 C-696.57758067 290.54627131 -696.22115489 289.95821711 -695.85392833 289.35234308 C-694.94120514 287.90627394 -693.94379228 286.51436614 -692.93400645 285.1343255 C-692.27400645 285.1343255 -691.61400645 285.1343255 -690.93400645 285.1343255 C-690.66459239 284.41116144 -690.39517833 283.68799738 -690.1176002 282.94291925 C-688.94819018 280.1679826 -687.58316779 277.75244033 -685.99650645 275.1968255 C-684.27459333 272.38826817 -682.70048557 269.65863483 -681.24650645 266.6968255 C-680.0253882 264.31273749 -679.03404209 262.77783166 -676.93400645 261.1343255 C-676.27400645 261.1343255 -675.61400645 261.1343255 -674.93400645 261.1343255 C-674.81927989 260.55166925 -674.70455333 259.969013 -674.5863502 259.3687005 C-673.88576583 256.96909416 -672.95208051 255.40571618 -671.49650645 253.3843255 C-671.06467052 252.77073175 -670.63283458 252.157138 -670.1879127 251.5249505 C-669.77412364 251.06604425 -669.36033458 250.607138 -668.93400645 250.1343255 C-668.27400645 250.1343255 -667.61400645 250.1343255 -666.93400645 250.1343255 C-666.85150645 249.3918255 -666.76900645 248.6493255 -666.68400645 247.8843255 C-665.78209837 244.57732919 -664.39886837 243.44980185 -661.93400645 241.1343255 C-661.62463145 240.4949505 -661.31525645 239.8555755 -660.99650645 239.1968255 C-659.93400645 237.1343255 -659.93400645 237.1343255 -657.6722877 234.8999505 C-654.85257991 232.05208586 -652.44795987 229.0252056 -650.05900645 225.8218255 C-639.93623156 212.46914225 -639.93623156 212.46914225 -634.93400645 209.1343255 C-634.43900645 208.2887005 -633.94400645 207.4430755 -633.43400645 206.5718255 C-631.93400645 204.1343255 -631.93400645 204.1343255 -628.93400645 203.1343255 C-628.23742282 201.47993938 -627.57303762 199.81178233 -626.93400645 198.1343255 C-624.92984807 195.69448052 -624.02028781 195.16308596 -620.93400645 194.1343255 C-619.49774306 192.30582954 -618.13249616 190.42103286 -616.80900645 188.5093255 C-612.91939654 183.07729802 -608.70226215 178.59771793 -602.93400645 175.1343255 C-602.27400645 175.1343255 -601.61400645 175.1343255 -600.93400645 175.1343255 C-600.59369395 174.0205755 -600.59369395 174.0205755 -600.24650645 172.8843255 C-598.67505035 169.59175081 -596.93404929 168.15935442 -593.93400645 166.1343255 C-593.27400645 166.1343255 -592.61400645 166.1343255 -591.93400645 166.1343255 C-591.59369395 165.237138 -591.59369395 165.237138 -591.24650645 164.3218255 C-589.57501008 161.53599822 -587.72836606 160.75895318 -584.93400645 159.1343255 C-583.77300671 158.00649718 -582.6159447 156.87388294 -581.4926002 155.70854425 C-575.26072296 149.41419205 -568.5334186 143.93190004 -561.2816627 138.860888 C-559.2869659 137.39390633 -557.66020907 135.89144518 -555.93400645 134.1343255 C-555.27400645 133.8249505 -554.61400645 133.5155755 -553.93400645 133.1968255 C-551.76883372 132.23930607 -551.76883372 132.23930607 -550.43400645 130.0093255 C-549.93900645 129.3905755 -549.44400645 128.7718255 -548.93400645 128.1343255 C-547.61400645 128.1343255 -546.29400645 128.1343255 -544.93400645 128.1343255 C-544.93400645 127.4743255 -544.93400645 126.8143255 -544.93400645 126.1343255 C-543.2894752 124.626513 -543.2894752 124.626513 -541.12150645 123.0093255 C-540.05996348 122.20108332 -540.05996348 122.20108332 -538.9769752 121.376513 C-536.93400645 120.1343255 -536.93400645 120.1343255 -533.93400645 120.1343255 C-533.93400645 119.4743255 -533.93400645 118.8143255 -533.93400645 118.1343255 C-529.82566889 114.13410208 -525.49526393 111.7907372 -520.34025645 109.3374505 C-518.23683408 108.28573932 -516.36004668 107.16250056 -514.43400645 105.8218255 C-511.93400645 104.1343255 -511.93400645 104.1343255 -509.93400645 104.1343255 C-509.93400645 103.4743255 -509.93400645 102.8143255 -509.93400645 102.1343255 C-507.9222877 100.73198175 -507.9222877 100.73198175 -505.24650645 99.1968255 C-504.37638927 98.69280207 -503.50627208 98.18877863 -502.6097877 97.66948175 C-501.72677989 97.16288019 -500.84377208 96.65627863 -499.93400645 96.1343255 C-499.06775645 95.59034113 -498.20150645 95.04635675 -497.30900645 94.485888 C-494.52229878 92.90003134 -492.09784441 92.50221364 -488.93400645 92.1343255 C-488.93400645 91.4743255 -488.93400645 90.8143255 -488.93400645 90.1343255 C-488.4235377 89.85459894 -487.91306895 89.57487238 -487.38713145 89.28666925 C-482.81570444 86.7659001 -478.29900063 84.17278552 -473.80900645 81.5093255 C-469.60204538 79.04774929 -465.46611191 76.94716769 -460.93400645 75.1343255 C-455.67839372 72.84857663 -450.51028057 70.52863648 -445.55900645 67.6343255 C-439.29205743 64.05642642 -432.47704428 61.77908085 -425.7113502 59.329638 C-420.88790686 57.5666546 -416.26082465 55.47727881 -411.59806895 53.32573175 C-408.7324369 52.04418076 -405.84106972 50.94101887 -402.88713145 49.8843255 C-400.71975281 49.05205211 -398.65543379 48.06872801 -396.55900645 47.0718255 C-393.44830426 45.66220577 -390.60897184 44.78016647 -387.24650645 44.1968255 C-381.83003402 43.24539583 -376.88628339 41.40510735 -371.73869395 39.501513 C-366.39979978 37.54812233 -360.96100104 35.91505078 -355.52775645 34.24760675 C-353.3495546 33.5728377 -351.17951749 32.86964591 -349.02775645 32.11479425 C-345.04510752 30.85261637 -341.01748095 30.00275289 -336.93400645 29.1343255 C-335.44530889 28.80285642 -333.95702056 28.46954364 -332.4691627 28.1343255 C-330.97827729 27.80099217 -329.48739187 27.46765884 -327.99650645 27.1343255 C-327.26238536 26.9693255 -326.52826427 26.8043255 -325.77189708 26.6343255 C-321.89952358 25.77004685 -318.02461215 24.95148253 -314.12931895 24.1968255 C-309.35643641 23.25285028 -304.64792707 22.1038625 -299.92790294 20.92656183 C-290.85080107 18.66616773 -281.95144387 16.59332429 -272.6410377 15.60331964 C-268.86414443 15.12548693 -265.18838111 14.42774087 -261.45744395 13.673388 C-253.54501199 12.13701855 -245.65769996 11.32795319 -237.62150645 10.6968255 C-234.74594093 10.45714951 -231.87113035 10.20924431 -228.99650645 9.95854425 C-227.89450152 9.86280115 -227.89450152 9.86280115 -226.77023387 9.76512384 C-216.74475242 8.87566191 -206.75286069 7.67816483 -196.75895762 6.49199152 C-196.05766734 6.40934549 -195.35637706 6.32669947 -194.63383555 6.24154902 C-192.75079644 6.01909416 -190.8681406 5.79340135 -188.98552012 5.56743097 C-178.39932991 4.39228794 -167.79458693 3.84507805 -157.1566627 3.4155755 C-155.62251456 3.35223784 -154.08837058 3.28879937 -152.55423045 3.22526789 C-149.33103799 3.09244647 -146.10777194 2.96161698 -142.88444591 2.83207941 C-139.68476729 2.70329042 -136.48523645 2.57155183 -133.28581309 2.4365716 C-88.85763159 0.56249892 -44.46601036 -0.02238554 0 0 Z " fill="#F3F2F6" transform="translate(926.9340064525604,131.86567449569702)"/>
<path d="M0 0 C4.03138901 0.00153704 8.06277417 0.00142889 12.09416318 0.00050974 C12.77417591 0.00035651 13.45418865 0.00020327 14.15480782 0.0000454 C15.53843915 -0.00027449 16.92207048 -0.00059871 18.3057018 -0.00092719 C31.12713501 -0.00374444 43.94856094 -0.00055516 56.76999296 0.00487317 C67.6472279 0.0093367 78.52445215 0.00856156 89.40168691 0.00395441 C102.19172076 -0.00146079 114.98174833 -0.00346906 127.77178317 -0.00043333 C129.1491915 -0.00011495 130.52659982 0.00019943 131.90400815 0.00050974 C132.58081673 0.00066401 133.25762532 0.00081829 133.95494325 0.00097724 C138.60612208 0.00182193 143.25729663 0.00037291 147.90847516 -0.00196981 C192.46988108 -0.0213405 236.9771219 0.65451469 281.50349355 2.4468255 C282.28730523 2.47793798 283.07111691 2.50905046 283.87868047 2.54110575 C309.69890495 3.56802769 335.32452916 5.13191324 360.94123769 8.66948175 C368.67165901 9.73365565 376.3433487 10.50788338 384.12849355 11.0093255 C395.20136056 11.80433512 405.9083389 13.5416585 416.78620839 15.70122004 C419.72132833 16.25882367 422.66805151 16.67279288 425.62849355 17.0718255 C432.34655151 18.05430829 438.89003429 19.70580118 445.47932363 21.31547785 C450.7305239 22.59473187 455.95839982 23.71378833 461.2886498 24.61479425 C467.19447552 25.71954084 473.02778225 27.18546042 478.86530995 28.60209894 C481.01779004 29.12266768 483.17253526 29.63286842 485.3277123 30.142138 C492.15359781 31.77630127 498.78478092 33.61019641 505.34724355 36.13041925 C509.52869805 37.67443334 513.79871689 38.90971696 518.06599355 40.19291925 C520.51575183 40.96165851 522.87311374 41.80429409 525.25349355 42.7593255 C528.13615011 43.89546688 530.88597672 44.4977878 533.94099355 45.0093255 C538.66508107 45.86890718 542.34977187 47.6518446 546.55818105 49.907763 C549.83842983 51.51212144 553.17850576 52.41637114 556.6870873 53.38823175 C559.71256872 54.33711016 562.39676584 55.68269037 565.1948998 57.157763 C568.96602107 59.12598914 572.85760227 60.73542286 576.89411855 62.06791925 C580.04802813 63.12828541 583.11316336 64.30841951 586.19099355 65.5718255 C587.20419667 65.98303644 588.2173998 66.39424738 589.26130605 66.81791925 C591.85376769 68.03471532 593.81704743 69.38937154 596.06599355 71.1343255 C598.3927122 72.14962091 600.72633825 73.14920748 603.06599355 74.1343255 C603.87036855 74.6293255 604.67474355 75.1243255 605.50349355 75.6343255 C608.28332684 77.26154499 611.04004668 78.28880091 614.0620873 79.37260675 C616.83491182 80.42660438 619.44199151 81.75672443 622.06599355 83.1343255 C622.06599355 83.7943255 622.06599355 84.4543255 622.06599355 85.1343255 C623.07661855 85.3612005 624.08724355 85.5880755 625.12849355 85.8218255 C628.74513228 86.8489509 631.17289195 88.52584255 634.1323998 90.78666925 C636.27793329 92.28204108 638.45771695 93.3804822 640.81599355 94.5093255 C645.65854868 96.84201975 650.08430811 99.62932738 654.58161855 102.564013 C657.17915903 104.26372051 657.17915903 104.26372051 660.56599355 105.8843255 C663.06599355 107.1343255 663.06599355 107.1343255 664.4448998 108.56010675 C666.31757278 110.37863016 668.18587068 111.37979351 670.50349355 112.5718255 C673.93404667 114.41477637 676.39957019 116.2703893 679.06599355 119.1343255 C681.19908547 120.36944629 681.19908547 120.36944629 683.06599355 121.1343255 C683.06599355 121.7943255 683.06599355 122.4543255 683.06599355 123.1343255 C684.14880605 123.536513 684.14880605 123.536513 685.25349355 123.9468255 C690.58820066 126.19925739 693.99085934 129.0591913 698.06599355 133.1343255 C699.72547502 134.14620445 701.39179917 135.1469801 703.06599355 136.1343255 C704.39932688 137.46765884 705.73266021 138.80099217 707.06599355 140.1343255 C709.19908547 141.36944629 709.19908547 141.36944629 711.06599355 142.1343255 C711.06599355 142.7943255 711.06599355 143.4543255 711.06599355 144.1343255 C713.39813503 145.34060558 715.56241493 146.2997993 718.06599355 147.1343255 C719.75533277 148.77800691 721.41859279 150.4486131 723.06599355 152.1343255 C725.06264952 153.80499683 727.06250389 155.47185536 729.06599355 157.1343255 C730.39932688 158.46765884 731.73266021 159.80099217 733.06599355 161.1343255 C733.87036855 161.7737005 734.67474355 162.4130755 735.50349355 163.0718255 C738.22239709 165.26021129 740.59996193 167.66829388 743.06599355 170.1343255 C744.05599355 170.7943255 745.04599355 171.4543255 746.06599355 172.1343255 C746.06599355 173.1243255 746.06599355 174.1143255 746.06599355 175.1343255 C746.6486498 175.40116144 747.23130605 175.66799738 747.83161855 175.94291925 C755.01223195 179.77174284 761.17368173 186.74569491 766.06599355 193.1343255 C766.06599355 193.7943255 766.06599355 194.4543255 766.06599355 195.1343255 C767.05599355 195.1343255 768.04599355 195.1343255 769.06599355 195.1343255 C770.31963449 196.81684361 771.56471774 198.50797588 772.7261498 200.25541925 C774.17162325 202.39920734 774.17162325 202.39920734 776.87849355 204.8843255 C779.06599355 207.1343255 779.06599355 207.1343255 779.06599355 210.1343255 C779.63447011 210.19362238 780.20294667 210.25291925 780.7886498 210.314013 C784.06776021 211.4951677 785.36540202 213.53946557 787.50349355 216.2593255 C788.28853261 217.25190363 789.07357167 218.24448175 789.8823998 219.267138 C791.60799932 221.53295205 793.2986666 223.80811165 794.94099355 226.1343255 C796.83753505 229.00596856 796.83753505 229.00596856 798.6402123 230.66166925 C800.06599355 232.1343255 800.06599355 232.1343255 801.00349355 234.6968255 C802.29303658 237.65518894 803.24461026 237.81180209 806.06599355 239.1343255 C806.76750507 240.44965961 807.4312528 241.78550142 808.06599355 243.1343255 C809.00378652 244.04891535 809.00378652 244.04891535 809.9605248 244.98198175 C812.06096612 247.12918615 813.31526113 249.07518263 814.75349355 251.6968255 C817.08470905 255.72454899 819.68353653 259.20864965 822.69099355 262.7593255 C831.06599355 272.71611303 831.06599355 272.71611303 831.06599355 278.1343255 C832.05599355 278.4643255 833.04599355 278.7943255 834.06599355 279.1343255 C835.12002517 281.10638467 836.11249116 283.11174468 837.06599355 285.1343255 C838.28945444 286.98547503 839.54078857 288.81843361 840.81599355 290.6343255 C844.65102992 296.27740849 847.63292452 302.04296466 850.5230248 308.20073175 C851.88121264 310.78300789 852.98594433 312.18866149 855.06599355 314.1343255 C855.81519521 315.82817275 856.55985242 317.52478008 857.2495873 319.2437005 C858.30223278 321.68140582 859.61871662 323.90377319 861.00349355 326.1655755 C862.22169335 328.42282808 863.20056974 330.75607613 864.19587636 333.11821222 C865.84529508 336.94001352 867.65375294 340.68803862 869.44099355 344.4468255 C869.84020009 345.29132257 870.23940663 346.13581964 870.65071034 347.00590754 C872.64922996 351.2191787 874.69817289 355.38641385 876.87849355 359.5093255 C879.22472968 364.10603304 880.5335798 368.88563978 881.96443105 373.829638 C883.43973238 378.255542 885.52740627 382.23638439 887.6870873 386.360888 C889.24161032 389.48754903 890.33470741 392.59138158 891.3511498 395.923388 C892.1489058 398.39076448 893.12448407 400.74382675 894.12849355 403.1343255 C895.39566058 406.23555009 896.36650695 409.15973427 897.00349355 412.4468255 C897.76195278 416.30006926 899.03466343 419.74285083 900.50349355 423.3843255 C902.697578 428.87918803 904.15044987 434.26448683 905.29255605 440.064013 C905.98858569 443.21268657 905.98858569 443.21268657 907.49568105 446.282763 C909.71999284 451.25499533 910.54011811 456.56301033 911.56599355 461.8843255 C912.93734101 468.89146865 914.46459773 475.77170977 916.39655995 482.64653254 C917.29355322 485.97999768 917.91266214 489.29495769 918.50349355 492.6968255 C919.39329763 497.70197345 920.3924493 502.65779823 921.54914784 507.60820246 C923.8625557 517.516407 925.35595303 527.44844005 926.6895287 537.53007746 C927.08667652 540.27740282 927.5742576 543.00008964 928.06599355 545.73198175 C929.22452667 552.58927486 929.7586695 559.46917986 930.27064443 566.39692926 C930.57014998 570.44057613 930.88798705 574.48277199 931.20661855 578.5249505 C931.27353902 579.37599863 931.34045949 580.22704676 931.40940785 581.10388422 C932.37243529 593.18609466 933.54553767 605.24989662 934.70808339 617.31425714 C934.79076467 618.1824206 934.87344594 619.05058405 934.95863271 619.94505548 C935.10997038 621.53377409 935.26329667 623.12230572 935.41944814 624.71055841 C936.68665049 638.05260111 937.25157948 651.41963243 937.59236073 664.81181574 C937.61320194 665.6052939 937.63404315 666.39877205 937.65551591 667.216295 C937.81931973 673.47908013 937.9687607 679.74215268 938.11286855 686.00541925 C938.13498245 686.95993754 938.15709636 687.91445583 938.17988038 688.89789891 C939.43668281 743.67586029 939.37167737 798.46201071 939.32491618 853.25086467 C939.31598233 863.92728399 939.31763294 874.60365891 939.32673573 885.28007746 C939.37190114 939.84048855 939.39781287 994.39691133 938.17536855 1048.9468255 C938.1557522 1049.84965242 938.13613585 1050.75247933 938.11592507 1051.68266463 C937.46704214 1081.52971467 935.93080524 1111.1841885 932.52644277 1140.86039972 C931.47490834 1150.03367452 930.69927396 1159.16137001 930.19099355 1168.3843255 C929.46954384 1180.10024071 927.81497906 1191.33737761 925.49909902 1202.82866144 C924.8881731 1206.08096379 924.5044367 1209.34750824 924.12849355 1212.6343255 C923.2354989 1219.85004117 921.62342344 1226.8422841 919.95954823 1233.9155755 C918.3310204 1240.85431038 916.95433761 1247.79937586 915.7417748 1254.8218255 C915.06599355 1258.1343255 915.06599355 1258.1343255 914.0620873 1261.12260675 C912.94194962 1264.50937598 912.38516668 1267.80097889 911.81599355 1271.3218255 C910.2808074 1280.1338562 907.59521432 1288.47637778 904.78279042 1296.95122004 C903.76861002 1300.04004878 902.82230505 1303.14837758 901.87849355 1306.2593255 C900.5885394 1310.48245338 899.23759878 1314.67415763 897.77693105 1318.84135675 C897.16681334 1320.80915398 896.66571227 1322.81016978 896.1870873 1324.814013 C895.03681099 1329.48497963 893.43645786 1333.94465697 891.75349355 1338.4468255 C891.44081532 1339.29003351 891.1281371 1340.13324152 890.80598378 1341.00200129 C888.88216454 1346.12988096 886.77560738 1351.10408683 884.41755605 1356.048388 C883.31273876 1358.5709477 882.33737938 1361.07077905 881.40193105 1363.657763 C877.38597477 1374.7437515 872.73686936 1385.12567251 867.10285878 1395.49467707 C864.6590846 1399.99902889 862.59095511 1404.22451937 861.06599355 1409.1343255 C860.10943133 1411.03185382 859.10903648 1412.9079243 858.06599355 1414.7593255 C855.97079747 1418.47218557 855.97079747 1418.47218557 854.06599355 1422.282763 C853.06599355 1424.1343255 853.06599355 1424.1343255 851.5777123 1425.57573175 C849.65300562 1427.56011926 848.91864364 1429.51463339 847.87849355 1432.0718255 C844.7419378 1439.24382798 840.63727978 1446.56303927 835.06599355 1452.1343255 C834.75661855 1452.9799505 834.44724355 1453.8255755 834.12849355 1454.6968255 C833.77786855 1455.5012005 833.42724355 1456.3055755 833.06599355 1457.1343255 C832.07599355 1457.4643255 831.08599355 1457.7943255 830.06599355 1458.1343255 C829.39366085 1460.46603253 828.72792464 1462.79964435 828.06599355 1465.1343255 C826.0777123 1468.23198175 826.0777123 1468.23198175 823.75349355 1471.1968255 C822.95040761 1472.23194269 822.14732167 1473.26705988 821.3198998 1474.33354425 C819.63896931 1476.42232616 817.94192785 1478.47995516 816.19099355 1480.5093255 C813.97198182 1483.25045764 812.55306967 1485.94773381 811.06599355 1489.1343255 C810.40599355 1490.1243255 809.74599355 1491.1143255 809.06599355 1492.1343255 C808.40599355 1492.1343255 807.74599355 1492.1343255 807.06599355 1492.1343255 C806.81849355 1492.7118255 806.57099355 1493.2893255 806.31599355 1493.8843255 C805.06599355 1496.1343255 805.06599355 1496.1343255 803.12849355 1498.0093255 C800.72490506 1500.48575001 799.48652649 1503.00915304 798.06599355 1506.1343255 C797.40599355 1506.1343255 796.74599355 1506.1343255 796.06599355 1506.1343255 C795.88036855 1506.8149505 795.69474355 1507.4955755 795.50349355 1508.1968255 C793.8386453 1511.59890671 791.82164623 1513.47828491 789.1089623 1516.06791925 C786.83475627 1518.3682156 784.83879196 1520.79786698 782.81599355 1523.3218255 C765.3115938 1545.05245875 765.3115938 1545.05245875 759.06599355 1547.1343255 C758.36448203 1548.44965961 757.70073429 1549.78550142 757.06599355 1551.1343255 C755.56599355 1552.8843255 755.56599355 1552.8843255 754.06599355 1554.1343255 C753.40599355 1554.1343255 752.74599355 1554.1343255 752.06599355 1554.1343255 C751.83911855 1554.6912005 751.61224355 1555.2480755 751.37849355 1555.8218255 C748.3548453 1561.14920575 742.89754311 1565.25990736 738.44099355 1569.4468255 C737.8686498 1569.99661066 737.29630605 1570.54639582 736.70661855 1571.11284113 C732.41037437 1575.1343255 732.41037437 1575.1343255 729.06599355 1575.1343255 C728.84556386 1575.68862238 728.62513417 1576.24291925 728.3980248 1576.814013 C726.6327259 1579.8890498 724.37699437 1581.88077942 721.75349355 1584.2593255 C720.80861073 1585.12815363 719.86372792 1585.99698175 718.8902123 1586.892138 C716.28480152 1588.96061073 714.20474856 1590.11665995 711.06599355 1591.1343255 C711.06599355 1591.7943255 711.06599355 1592.4543255 711.06599355 1593.1343255 C710.17911855 1593.5262005 709.29224355 1593.9180755 708.37849355 1594.3218255 C704.87067764 1596.24119647 702.85219778 1598.28332583 700.06599355 1601.1343255 C695.60552622 1604.88651447 691.15845542 1608.1546366 686.01130605 1610.907763 C683.33423456 1612.59571571 680.9924718 1614.6045467 678.56599355 1616.6343255 C668.37159487 1625.1343255 668.37159487 1625.1343255 663.06599355 1625.1343255 C662.83911855 1625.7530755 662.61224355 1626.3718255 662.37849355 1627.0093255 C660.65716835 1629.79623297 659.08381334 1629.9401311 656.06599355 1631.1343255 C654.34753569 1632.23318531 652.65984185 1633.38140516 651.00349355 1634.5718255 C650.16689198 1635.16866144 649.33029042 1635.76549738 648.4683373 1636.38041925 C646.97812553 1637.468395 645.50623155 1638.58257242 644.06599355 1639.735888 C641.13508467 1641.78523445 637.95026781 1642.77842542 634.6011498 1643.97416925 C631.67463077 1645.31342372 629.57030923 1647.12097749 627.06599355 1649.1343255 C625.02996493 1650.22682867 622.96600347 1651.26873073 620.87849355 1652.2593255 C616.64024372 1654.22602199 616.64024372 1654.22602199 613.06599355 1657.1343255 C611.56140564 1657.70037905 610.03631459 1658.21240725 608.50349355 1658.6968255 C603.35816642 1660.49233028 598.75798245 1662.82765151 594.00349355 1665.4468255 C585.92523727 1669.86703779 577.63581012 1673.23600569 569.00593495 1676.41606379 C563.91004407 1678.30281322 558.84559162 1680.2263673 554.00349355 1682.6968255 C550.88049818 1684.22509983 547.77861325 1685.26539157 544.47224355 1686.31791925 C542.02801475 1687.14721117 539.68923608 1688.12107423 537.31599355 1689.1343255 C532.39105977 1691.15324246 527.42157296 1692.23452853 522.23005605 1693.3530755 C518.47240896 1694.2808896 515.06868876 1695.65491885 511.5152123 1697.1655755 C508.0742579 1698.52659096 504.55818768 1699.42578505 500.98005605 1700.3530755 C497.83297593 1701.19679672 494.73603926 1702.15533736 491.62849355 1703.1343255 C483.17236428 1705.75933246 474.66256931 1707.83662347 465.98127675 1709.55424738 C460.23283491 1710.69806262 454.49379882 1711.88798073 448.75349355 1713.0718255 C446.90981191 1713.44984308 446.90981191 1713.44984308 445.02888417 1713.83549738 C439.04343993 1715.07048878 433.07925515 1716.3533468 427.1323998 1717.76323175 C422.51229528 1718.84164317 418.0318527 1719.64008699 413.31599355 1720.1343255 C408.55653216 1720.66720906 403.88761222 1721.31282301 399.18113637 1722.21597528 C390.47293734 1723.88113162 381.83733387 1724.81304256 372.99839711 1725.41441584 C368.90622362 1725.69358142 364.81629495 1726.0028544 360.7261498 1726.31010675 C359.44111814 1726.40584986 359.44111814 1726.40584986 358.13012624 1726.50352716 C345.98705472 1727.42257242 333.86760097 1728.61136728 321.74616933 1729.77665949 C320.87879643 1729.85930552 320.01142354 1729.94195154 319.11776662 1730.02710199 C317.52865804 1730.17867186 315.93971455 1730.33199198 314.35101247 1730.48776484 C301.48588688 1731.71486534 288.61633231 1732.32839495 275.70051503 1732.66069269 C274.91699894 1732.6815339 274.13348285 1732.70237511 273.32622385 1732.72384787 C267.13427604 1732.88789471 260.94203133 1733.03722144 254.7495873 1733.1812005 C253.80543108 1733.20331441 252.86127486 1733.22542831 251.88850784 1733.24821234 C197.29203798 1734.51465591 142.68649272 1734.43983474 88.07891624 1734.39324814 C77.40279999 1734.38431828 66.72672816 1734.38596094 56.05061269 1734.39506769 C1.27077532 1734.44043995 -53.5043553 1734.45627368 -108.2738502 1733.23979425 C-109.18915531 1733.22005076 -110.10446042 1733.20030727 -111.04750204 1733.1799655 C-138.97369112 1732.57698387 -166.7151776 1731.21614948 -194.51609874 1728.37645197 C-198.43812482 1727.98370484 -202.36365116 1727.63124826 -206.2894752 1727.27885675 C-212.754077 1726.69562517 -219.2147517 1726.07855077 -225.67472911 1725.44584894 C-228.77420446 1725.14959946 -231.87464603 1724.87537585 -234.9769752 1724.610888 C-244.18529493 1723.81519659 -253.13641699 1722.68443914 -262.1957252 1720.845263 C-265.83525987 1720.1531049 -269.4419809 1719.6818929 -273.12150645 1719.2593255 C-280.26307826 1718.36286238 -287.13478229 1716.74197703 -294.11784434 1715.01933527 C-299.25010891 1713.75787891 -304.35621799 1712.62569741 -309.55900645 1711.6968255 C-341.5665801 1705.89217332 -341.5665801 1705.89217332 -356.28556895 1700.1499505 C-358.53451604 1699.28752242 -360.65147135 1698.65119038 -362.99650645 1698.1343255 C-366.59391215 1697.33319019 -369.88975659 1696.00361765 -373.30900645 1694.6343255 C-377.23488646 1693.07844679 -380.89379746 1691.82410534 -385.05900645 1691.1343255 C-389.88130454 1690.3136751 -393.88118997 1688.47490753 -398.26994395 1686.360888 C-400.70055646 1685.24180835 -403.07103425 1684.36939585 -405.62150645 1683.5718255 C-408.44555643 1682.68341611 -410.95531206 1681.66476054 -413.55900645 1680.2593255 C-417.14162779 1678.38037733 -420.758298 1677.20317882 -424.62150645 1676.0093255 C-434.0573458 1673.04349885 -442.78206902 1668.59229855 -451.64201427 1664.24565363 C-454.421674 1662.89786804 -457.23288477 1661.63138206 -460.05900645 1660.3843255 C-464.67491093 1658.3148739 -469.08332203 1655.93646235 -473.5004127 1653.47416925 C-475.36390313 1652.44820261 -477.26681478 1651.49355227 -479.18400645 1650.5718255 C-481.43860809 1649.39328374 -483.23075667 1648.21208161 -485.24650645 1646.6968255 C-487.7861084 1644.82262144 -490.20108383 1643.51318925 -493.12150645 1642.3218255 C-499.24129513 1639.75276746 -504.48010505 1635.86791916 -509.93400645 1632.1343255 C-513.52780572 1629.8124889 -517.17456131 1627.58410384 -520.85588145 1625.40385675 C-527.94634707 1621.15466623 -534.42520643 1616.60175058 -540.86369395 1611.4312005 C-544.11369354 1608.9999031 -547.3953515 1607.111683 -550.93400645 1605.1343255 C-552.62150645 1603.5718255 -552.62150645 1603.5718255 -553.93400645 1602.1343255 C-554.65588145 1601.6187005 -555.37775645 1601.1030755 -556.12150645 1600.5718255 C-557.01869395 1599.860263 -557.01869395 1599.860263 -557.93400645 1599.1343255 C-557.93400645 1598.4743255 -557.93400645 1597.8143255 -557.93400645 1597.1343255 C-558.65201427 1596.88940363 -559.37002208 1596.64448175 -560.1097877 1596.392138 C-563.28100189 1594.97978535 -565.47598491 1593.25235264 -568.12150645 1591.0093255 C-571.81142676 1587.9119835 -575.52178128 1584.86202422 -579.30900645 1581.8843255 C-582.7468999 1579.14374064 -585.86323651 1576.28590519 -588.93400645 1573.1343255 C-590.25953823 1571.95880247 -591.59359823 1570.79285677 -592.93400645 1569.6343255 C-596.06854639 1566.91733216 -599.0385104 1564.1080782 -601.93400645 1561.1343255 C-604.47501207 1558.5281659 -606.97069298 1556.10481677 -609.80900645 1553.8218255 C-613.61754525 1550.70755159 -616.99258285 1547.07652932 -619.93400645 1543.1343255 C-619.93400645 1542.4743255 -619.93400645 1541.8143255 -619.93400645 1541.1343255 C-620.80025645 1541.0724505 -620.80025645 1541.0724505 -621.68400645 1541.0093255 C-625.04288226 1539.70309602 -626.00696195 1537.11248519 -627.93400645 1534.1343255 C-629.59293828 1532.79138069 -631.2587725 1531.45687863 -632.93400645 1530.1343255 C-633.61771095 1528.80964804 -634.28364831 1527.47568918 -634.93400645 1526.1343255 C-636.57768786 1524.44498628 -638.24829405 1522.78172626 -639.93400645 1521.1343255 C-641.51491794 1519.3048186 -643.06448082 1517.45353867 -644.6019752 1515.5874505 C-645.89197555 1514.00653368 -645.89197555 1514.00653368 -647.93400645 1513.1343255 C-650.93400645 1508.6343255 -650.93400645 1508.6343255 -650.93400645 1506.1343255 C-651.92400645 1505.8043255 -652.91400645 1505.4743255 -653.93400645 1505.1343255 C-654.96012594 1503.48361155 -655.95708788 1501.81462544 -656.93400645 1500.1343255 C-657.63525645 1499.4330755 -658.33650645 1498.7318255 -659.05900645 1498.0093255 C-660.93400645 1496.1343255 -660.93400645 1496.1343255 -661.93400645 1493.1343255 C-662.69713145 1492.3918255 -663.46025645 1491.6493255 -664.24650645 1490.8843255 C-667.94286735 1487.10200272 -670.24908534 1483.18908884 -671.93400645 1478.1343255 C-672.92400645 1477.8043255 -673.91400645 1477.4743255 -674.93400645 1477.1343255 C-676.33112919 1475.17835367 -677.65328274 1473.1684161 -678.93400645 1471.1343255 C-679.80345837 1469.94275737 -680.67853899 1468.75527736 -681.55900645 1467.5718255 C-683.51785797 1464.8701679 -684.73956863 1462.25823981 -685.93400645 1459.1343255 C-686.59400645 1458.8043255 -687.25400645 1458.4743255 -687.93400645 1458.1343255 C-688.93400645 1456.1343255 -689.93400645 1454.1343255 -690.93400645 1452.1343255 C-692.22831008 1450.30137456 -693.56651003 1448.51739614 -694.9457252 1446.74760675 C-695.93400645 1445.1343255 -695.93400645 1445.1343255 -695.93400645 1442.1343255 C-696.59400645 1442.1343255 -697.25400645 1442.1343255 -697.93400645 1442.1343255 C-698.26400645 1440.8143255 -698.59400645 1439.4943255 -698.93400645 1438.1343255 C-699.59400645 1438.1343255 -700.25400645 1438.1343255 -700.93400645 1438.1343255 C-701.55275645 1436.3399505 -701.55275645 1436.3399505 -702.18400645 1434.5093255 C-703.24216357 1431.65581177 -704.26834441 1429.63788429 -705.99650645 1427.0718255 C-708.21281924 1423.71160934 -709.00157878 1421.0194408 -709.93400645 1417.1343255 C-710.59400645 1417.1343255 -711.25400645 1417.1343255 -711.93400645 1417.1343255 C-712.70750427 1415.6148456 -713.47765125 1414.09365984 -714.24650645 1412.5718255 C-714.67576427 1411.72491144 -715.10502208 1410.87799738 -715.5472877 1410.00541925 C-716.81829493 1407.37389725 -717.96720105 1404.70983818 -719.10612559 1402.01933527 C-720.61571987 1398.58212577 -722.31049865 1395.23757294 -723.99650645 1391.8843255 C-724.34777598 1391.17791925 -724.69904552 1390.471513 -725.06095958 1389.7437005 C-726.55882416 1386.75363434 -728.07667907 1383.92031658 -729.93400645 1381.1343255 C-730.61525351 1379.13924483 -731.27827854 1377.13793858 -731.93400645 1375.1343255 C-732.88499857 1372.67618069 -733.87014744 1370.233405 -734.8597877 1367.7905755 C-735.57447854 1366.02333999 -736.28026225 1364.25247552 -736.9769752 1362.4780755 C-738.38971404 1358.88398131 -739.80364458 1355.39003533 -741.55900645 1351.9468255 C-742.93400645 1349.1343255 -742.93400645 1349.1343255 -743.80900645 1345.9468255 C-744.78353557 1342.64425461 -745.9478782 1339.90706252 -747.43400645 1336.8218255 C-749.48131118 1332.4474971 -750.55622723 1328.51887295 -751.34806895 1323.782763 C-752.28887723 1319.53030961 -754.01816885 1315.60885329 -755.63713145 1311.57573175 C-757.40356045 1306.88831023 -758.70612387 1302.11098527 -760.02775645 1297.282763 C-760.75605127 1294.75256635 -761.56622774 1292.37913335 -762.55900645 1289.9468255 C-764.0592819 1286.1359654 -764.67534851 1282.31613656 -765.3441627 1278.28666925 C-766.01280567 1274.71319325 -766.89473197 1271.21306517 -767.80900645 1267.6968255 C-769.61635463 1260.70020371 -771.05975418 1253.6633661 -772.42912364 1246.5693841 C-773.46683209 1241.26565419 -774.67958251 1236.04613633 -776.05900645 1230.8218255 C-777.64871301 1224.72192875 -778.63619992 1218.68312019 -779.3676002 1212.423388 C-779.77300595 1209.12460702 -780.31754638 1205.86616094 -780.9066627 1202.595263 C-782.75963511 1192.29901372 -784.21285849 1182.29883639 -784.50285411 1171.83842707 C-784.85456645 1161.67826633 -786.15444761 1151.61653753 -787.38713145 1141.53349543 C-790.04546118 1119.67127382 -791.34993579 1097.89590098 -791.99650645 1075.8843255 C-792.0747432 1073.41425628 -792.15351855 1070.94420406 -792.23283458 1068.47416925 C-792.41651888 1062.65374168 -792.58409047 1056.83303252 -792.74372476 1051.01188833 C-792.84702048 1047.25306799 -792.95215842 1043.49433043 -793.06305194 1039.73572588 C-793.97359252 1008.62543243 -794.08418686 977.52529603 -794.06930635 946.40362622 C-794.0669861 941.41418421 -794.06675162 936.42474561 -794.06782222 931.43530321 C-794.06797545 930.71281163 -794.06812868 929.99032006 -794.06828656 929.2459348 C-794.06860643 927.77613394 -794.06893065 926.30633308 -794.06925915 924.83653223 C-794.07208027 911.19825092 -794.06888078 897.55997643 -794.06345879 883.92169624 C-794.05899483 872.33656339 -794.05976997 860.75144059 -794.06437755 849.16630793 C-794.0697855 835.56326825 -794.07180491 821.96023449 -794.06876528 808.35719389 C-794.06844689 806.89385045 -794.06813251 805.43050701 -794.06782222 803.96716356 C-794.06766794 803.24802193 -794.06751367 802.52888029 -794.06735472 801.78794648 C-794.06650792 796.83178052 -794.06793074 791.8756185 -794.07030177 786.91945314 C-794.08375724 756.12755851 -793.92486614 725.35984109 -793.05738711 694.57880354 C-792.89756687 688.89996526 -792.76264859 683.22057806 -792.62727141 677.54111338 C-791.82953045 645.09536665 -790.30067599 612.87977158 -786.09799266 580.68229914 C-785.25431696 574.19661682 -784.72158439 567.85518927 -784.62150645 561.3218255 C-784.28406366 550.43134652 -782.23849973 539.98639501 -780.1254127 529.3218255 C-779.19898534 524.6356061 -778.46992163 520.00451617 -777.93400645 515.2593255 C-776.99042647 507.41128044 -775.06231063 499.83466544 -773.15275645 492.17729425 C-772.11559184 487.98484623 -771.23452571 483.77728098 -770.40763927 479.53886652 C-764.43032337 449.19320456 -764.43032337 449.19320456 -759.0082252 435.1343255 C-757.34181624 430.48049974 -756.01946105 425.72853143 -754.68425059 420.97050714 C-753.69361011 417.49140991 -752.56411562 414.35220335 -750.93400645 411.1343255 C-750.61862307 409.62210262 -750.35053384 408.09951369 -750.12150645 406.5718255 C-749.19712552 401.60782709 -747.41592904 397.4736797 -745.23088145 392.94291925 C-743.53036289 389.26016972 -742.22173862 385.48291202 -740.92619395 381.642138 C-739.93400645 379.1343255 -739.93400645 379.1343255 -738.4379127 376.704638 C-736.74688828 373.81452353 -735.90253913 371.10404679 -734.99650645 367.8843255 C-732.89012343 360.80719769 -730.47219719 354.3961275 -726.43400645 348.1968255 C-724.10444077 344.60364692 -722.61322149 340.96554233 -721.0941627 336.97416925 C-717.44843428 328.05011349 -712.72811146 319.48420581 -707.93400645 311.1343255 C-707.37713145 310.1237005 -706.82025645 309.1130755 -706.24650645 308.0718255 C-705.81338145 307.4324505 -705.38025645 306.7930755 -704.93400645 306.1343255 C-704.27400645 306.1343255 -703.61400645 306.1343255 -702.93400645 306.1343255 C-702.76900645 305.0824505 -702.60400645 304.0305755 -702.43400645 302.9468255 C-701.36413309 298.58079816 -699.26370719 294.93566207 -696.93400645 291.1343255 C-696.57758067 290.54627131 -696.22115489 289.95821711 -695.85392833 289.35234308 C-694.94120514 287.90627394 -693.94379228 286.51436614 -692.93400645 285.1343255 C-692.27400645 285.1343255 -691.61400645 285.1343255 -690.93400645 285.1343255 C-690.66459239 284.41116144 -690.39517833 283.68799738 -690.1176002 282.94291925 C-688.94819018 280.1679826 -687.58316779 277.75244033 -685.99650645 275.1968255 C-684.27459333 272.38826817 -682.70048557 269.65863483 -681.24650645 266.6968255 C-680.0253882 264.31273749 -679.03404209 262.77783166 -676.93400645 261.1343255 C-676.27400645 261.1343255 -675.61400645 261.1343255 -674.93400645 261.1343255 C-674.81927989 260.55166925 -674.70455333 259.969013 -674.5863502 259.3687005 C-673.88576583 256.96909416 -672.95208051 255.40571618 -671.49650645 253.3843255 C-671.06467052 252.77073175 -670.63283458 252.157138 -670.1879127 251.5249505 C-669.77412364 251.06604425 -669.36033458 250.607138 -668.93400645 250.1343255 C-668.27400645 250.1343255 -667.61400645 250.1343255 -666.93400645 250.1343255 C-666.85150645 249.3918255 -666.76900645 248.6493255 -666.68400645 247.8843255 C-665.78209837 244.57732919 -664.39886837 243.44980185 -661.93400645 241.1343255 C-661.62463145 240.4949505 -661.31525645 239.8555755 -660.99650645 239.1968255 C-659.93400645 237.1343255 -659.93400645 237.1343255 -657.6722877 234.8999505 C-654.85257991 232.05208586 -652.44795987 229.0252056 -650.05900645 225.8218255 C-639.93623156 212.46914225 -639.93623156 212.46914225 -634.93400645 209.1343255 C-634.43900645 208.2887005 -633.94400645 207.4430755 -633.43400645 206.5718255 C-631.93400645 204.1343255 -631.93400645 204.1343255 -628.93400645 203.1343255 C-628.23742282 201.47993938 -627.57303762 199.81178233 -626.93400645 198.1343255 C-624.92984807 195.69448052 -624.02028781 195.16308596 -620.93400645 194.1343255 C-619.49774306 192.30582954 -618.13249616 190.42103286 -616.80900645 188.5093255 C-612.91939654 183.07729802 -608.70226215 178.59771793 -602.93400645 175.1343255 C-602.27400645 175.1343255 -601.61400645 175.1343255 -600.93400645 175.1343255 C-600.59369395 174.0205755 -600.59369395 174.0205755 -600.24650645 172.8843255 C-598.67505035 169.59175081 -596.93404929 168.15935442 -593.93400645 166.1343255 C-593.27400645 166.1343255 -592.61400645 166.1343255 -591.93400645 166.1343255 C-591.59369395 165.237138 -591.59369395 165.237138 -591.24650645 164.3218255 C-589.57501008 161.53599822 -587.72836606 160.75895318 -584.93400645 159.1343255 C-583.77300671 158.00649718 -582.6159447 156.87388294 -581.4926002 155.70854425 C-575.26072296 149.41419205 -568.5334186 143.93190004 -561.2816627 138.860888 C-559.2869659 137.39390633 -557.66020907 135.89144518 -555.93400645 134.1343255 C-555.27400645 133.8249505 -554.61400645 133.5155755 -553.93400645 133.1968255 C-551.76883372 132.23930607 -551.76883372 132.23930607 -550.43400645 130.0093255 C-549.93900645 129.3905755 -549.44400645 128.7718255 -548.93400645 128.1343255 C-547.61400645 128.1343255 -546.29400645 128.1343255 -544.93400645 128.1343255 C-544.93400645 127.4743255 -544.93400645 126.8143255 -544.93400645 126.1343255 C-543.2894752 124.626513 -543.2894752 124.626513 -541.12150645 123.0093255 C-540.05996348 122.20108332 -540.05996348 122.20108332 -538.9769752 121.376513 C-536.93400645 120.1343255 -536.93400645 120.1343255 -533.93400645 120.1343255 C-533.93400645 119.4743255 -533.93400645 118.8143255 -533.93400645 118.1343255 C-529.82566889 114.13410208 -525.49526393 111.7907372 -520.34025645 109.3374505 C-518.23683408 108.28573932 -516.36004668 107.16250056 -514.43400645 105.8218255 C-511.93400645 104.1343255 -511.93400645 104.1343255 -509.93400645 104.1343255 C-509.93400645 103.4743255 -509.93400645 102.8143255 -509.93400645 102.1343255 C-507.9222877 100.73198175 -507.9222877 100.73198175 -505.24650645 99.1968255 C-504.37638927 98.69280207 -503.50627208 98.18877863 -502.6097877 97.66948175 C-501.72677989 97.16288019 -500.84377208 96.65627863 -499.93400645 96.1343255 C-499.06775645 95.59034113 -498.20150645 95.04635675 -497.30900645 94.485888 C-494.52229878 92.90003134 -492.09784441 92.50221364 -488.93400645 92.1343255 C-488.93400645 91.4743255 -488.93400645 90.8143255 -488.93400645 90.1343255 C-488.4235377 89.85459894 -487.91306895 89.57487238 -487.38713145 89.28666925 C-482.81570444 86.7659001 -478.29900063 84.17278552 -473.80900645 81.5093255 C-469.60204538 79.04774929 -465.46611191 76.94716769 -460.93400645 75.1343255 C-455.67839372 72.84857663 -450.51028057 70.52863648 -445.55900645 67.6343255 C-439.29205743 64.05642642 -432.47704428 61.77908085 -425.7113502 59.329638 C-420.88790686 57.5666546 -416.26082465 55.47727881 -411.59806895 53.32573175 C-408.7324369 52.04418076 -405.84106972 50.94101887 -402.88713145 49.8843255 C-400.71975281 49.05205211 -398.65543379 48.06872801 -396.55900645 47.0718255 C-393.44830426 45.66220577 -390.60897184 44.78016647 -387.24650645 44.1968255 C-381.83003402 43.24539583 -376.88628339 41.40510735 -371.73869395 39.501513 C-366.39979978 37.54812233 -360.96100104 35.91505078 -355.52775645 34.24760675 C-353.3495546 33.5728377 -351.17951749 32.86964591 -349.02775645 32.11479425 C-345.04510752 30.85261637 -341.01748095 30.00275289 -336.93400645 29.1343255 C-335.44530889 28.80285642 -333.95702056 28.46954364 -332.4691627 28.1343255 C-330.97827729 27.80099217 -329.48739187 27.46765884 -327.99650645 27.1343255 C-327.26238536 26.9693255 -326.52826427 26.8043255 -325.77189708 26.6343255 C-321.89952358 25.77004685 -318.02461215 24.95148253 -314.12931895 24.1968255 C-309.35643641 23.25285028 -304.64792707 22.1038625 -299.92790294 20.92656183 C-290.85080107 18.66616773 -281.95144387 16.59332429 -272.6410377 15.60331964 C-268.86414443 15.12548693 -265.18838111 14.42774087 -261.45744395 13.673388 C-253.54501199 12.13701855 -245.65769996 11.32795319 -237.62150645 10.6968255 C-234.74594093 10.45714951 -231.87113035 10.20924431 -228.99650645 9.95854425 C-227.89450152 9.86280115 -227.89450152 9.86280115 -226.77023387 9.76512384 C-216.74475242 8.87566191 -206.75286069 7.67816483 -196.75895762 6.49199152 C-196.05766734 6.40934549 -195.35637706 6.32669947 -194.63383555 6.24154902 C-192.75079644 6.01909416 -190.8681406 5.79340135 -188.98552012 5.56743097 C-178.39932991 4.39228794 -167.79458693 3.84507805 -157.1566627 3.4155755 C-155.62251456 3.35223784 -154.08837058 3.28879937 -152.55423045 3.22526789 C-149.33103799 3.09244647 -146.10777194 2.96161698 -142.88444591 2.83207941 C-139.68476729 2.70329042 -136.48523645 2.57155183 -133.28581309 2.4365716 C-88.85763159 0.56249892 -44.46601036 -0.02238554 0 0 Z M-234.93400645 170.1343255 C-236.00268773 170.27915255 -237.07136901 170.42397959 -238.17243457 170.57319534 C-274.43962273 175.59208786 -309.83227619 186.58732311 -342.93400645 202.1343255 C-343.90644298 202.59033136 -344.8788795 203.04633722 -345.8807838 203.51616144 C-367.916568 213.9588798 -388.5225102 226.37760261 -407.93400645 241.1343255 C-408.56097423 241.6096673 -409.187942 242.0850091 -409.8339088 242.57475519 C-434.11946901 261.08852716 -457.13207338 281.99714305 -475.93400645 306.1343255 C-476.39951915 306.72197687 -476.86503184 307.30962824 -477.34465098 307.91508722 C-491.11521173 325.31387227 -503.19458269 343.72548141 -513.93400645 363.1343255 C-514.35101817 363.87795343 -514.76802989 364.62158136 -515.19767833 365.38774347 C-544.5296742 417.93136947 -559.3061712 478.90732761 -559.19470286 538.876513 C-559.1977301 541.21258176 -559.20162243 543.54864952 -559.20629543 545.88471556 C-559.21651064 552.25018104 -559.21441023 558.61558979 -559.21011484 564.98105979 C-559.20690794 571.15843776 -559.21507566 577.3358068 -559.22187509 583.51318017 C-559.23705645 597.69372296 -559.23882615 611.87424778 -559.23635206 626.05479699 C-559.23451394 637.01279672 -559.23628987 647.97079062 -559.24057651 658.92878962 C-559.24117893 660.50741162 -559.24178013 662.08603362 -559.24238011 663.66465563 C-559.24328744 666.04399713 -559.24419611 668.42333863 -559.24511246 670.80268013 C-559.25353344 692.90481109 -559.25788369 715.00693987 -559.25370574 737.10907221 C-559.25354936 737.94102754 -559.25339299 738.77298287 -559.25323187 739.63014897 C-559.25242619 743.84607293 -559.25158041 748.06199689 -559.25071857 752.27792084 C-559.25054748 753.11509731 -559.2503764 753.95227378 -559.25020012 754.81481923 C-559.24985346 756.50779148 -559.24950493 758.20076374 -559.24915454 759.89373599 C-559.24380071 786.21987674 -559.25172165 812.54598397 -559.27018809 838.87211847 C-559.2909503 868.50527293 -559.30162265 898.13840664 -559.29761261 927.77156878 C-559.29721731 930.93749094 -559.29685576 934.1034131 -559.29651523 937.26933527 C-559.29642449 938.04876374 -559.29633376 938.82819221 -559.29624028 939.63123973 C-559.29507909 951.34720224 -559.30168607 963.06314365 -559.31232715 974.77910089 C-559.32443326 988.12102324 -559.32587638 1001.4628994 -559.31353698 1014.8048225 C-559.30753091 1021.60120801 -559.30647061 1028.39749826 -559.31853938 1035.19387865 C-559.60927652 1072.78261594 -559.60927652 1072.78261594 -555.93400645 1110.1343255 C-555.80965775 1110.94662434 -555.68530905 1111.75892317 -555.55719221 1112.59583712 C-554.87361808 1117.00936471 -554.08038578 1121.38415539 -553.18400645 1125.7593255 C-552.92796641 1127.03872004 -552.67192637 1128.31811457 -552.40812755 1129.63627863 C-538.76516869 1196.67297278 -507.34516583 1259.25352336 -460.57463145 1309.3062005 C-458.77040923 1311.23853318 -456.99016908 1313.17802955 -455.23088145 1315.1499505 C-448.84664904 1322.28338801 -442.07130311 1328.76104841 -434.93400645 1335.1343255 C-434.14767833 1335.87038019 -433.3613502 1336.60643488 -432.55119395 1337.36479425 C-425.49938246 1343.92656461 -417.88754099 1349.70433916 -410.17521739 1355.45805597 C-408.72590794 1356.5420384 -407.28092086 1357.63183471 -405.84123302 1358.72856379 C-357.99070346 1395.17907407 -299.70245594 1418.12532543 -240.49650645 1427.4468255 C-239.09960582 1427.66773859 -239.09960582 1427.66773859 -237.67448497 1427.89311457 C-218.924002 1430.62546035 -200.17540147 1431.43055372 -181.25297618 1431.38829279 C-178.96025263 1431.39060377 -176.66752983 1431.39378452 -174.37480855 1431.39774728 C-168.14328368 1431.40601643 -161.91182089 1431.40200628 -155.68029594 1431.39577484 C-149.62827124 1431.39168817 -143.5762589 1431.3970612 -137.52423666 1431.40206957 C-124.39864107 1431.41254912 -111.27306507 1431.41170911 -98.14746766 1431.40591175 C-86.66044371 1431.40086356 -75.17342691 1431.39957516 -63.68640208 1431.40195704 C-62.53964671 1431.40218619 -62.53964671 1431.40218619 -61.36972456 1431.40241998 C-58.26568757 1431.40304274 -55.16165059 1431.40367955 -52.05761361 1431.4043395 C-22.99024461 1431.41044574 6.07711198 1431.4049293 35.14447906 1431.39414571 C60.92056996 1431.38465581 86.6966411 1431.38550512 112.47273183 1431.39506769 C141.48985289 1431.40579688 170.50696299 1431.41001254 199.52408576 1431.40384316 C202.6221869 1431.40320181 205.72028804 1431.40257613 208.81838918 1431.40195704 C209.58111746 1431.40179888 210.34384574 1431.40164073 211.12968699 1431.40147778 C222.60428304 1431.39921104 234.07887114 1431.401848 245.55346608 1431.40691614 C258.61181899 1431.41265535 271.6701494 1431.41116114 284.72849953 1431.40035465 C291.38249396 1431.39502848 298.03645723 1431.39299905 304.69045377 1431.39965296 C310.79592943 1431.40566571 316.90132854 1431.40225058 323.00679737 1431.39169785 C325.20098565 1431.38948619 327.39518055 1431.39054899 329.58936447 1431.39544943 C384.48133743 1431.50852216 438.36819864 1419.4760581 488.06599355 1396.1343255 C489.52464833 1395.45031672 489.52464833 1395.45031672 491.01277089 1394.75248957 C534.43220928 1374.1760961 576.52709384 1344.1757276 608.0152123 1307.52104425 C609.54519407 1305.7404369 611.0922869 1303.97450533 612.6480248 1302.21635675 C683.58617686 1221.59045501 705.43646499 1123.5458842 705.32744288 1018.99455798 C705.3233433 1013.16655712 705.32873686 1007.33856922 705.33373762 1001.51057018 C705.34419692 988.87689444 705.34338534 976.24323909 705.33757979 963.60956147 C705.33252431 952.55218021 705.33124654 941.49480637 705.33362508 930.43742418 C705.33377785 929.70047564 705.33393062 928.96352709 705.33408802 928.20424677 C705.33471082 925.21180579 705.33534763 922.21936482 705.33600755 919.22692385 C705.34210904 891.22415716 705.33660504 863.22140335 705.32581375 835.21863865 C705.31632538 810.40838218 705.31717289 785.59814625 705.32673573 760.78788996 C705.33747462 732.83385225 705.34167512 704.87982592 705.33551121 676.92578644 C705.33486989 673.93887182 705.3342442 670.95195721 705.33362508 667.96504259 C705.33346692 667.22973121 705.33330877 666.49441983 705.33314582 665.73682629 C705.33088297 654.69444253 705.33350872 643.65206707 705.33858418 632.60968447 C705.34433453 620.03727685 705.34280591 607.46489259 705.3320227 594.89248783 C705.32680477 588.49086929 705.32464216 582.08929218 705.331321 575.68767405 C705.59170854 530.7896673 705.59170854 530.7896673 700.87849355 486.1968255 C700.77306233 485.54997797 700.66763112 484.90313044 700.55900502 484.23668146 C689.78791829 418.4145833 662.62847615 356.61083748 620.06599355 305.1343255 C619.25904042 304.15334894 618.4520873 303.17237238 617.62068105 302.16166925 C605.49776472 287.55753312 592.50133415 273.47617657 578.06599355 261.1343255 C577.10564198 260.28483332 576.14529042 259.43534113 575.1558373 258.56010675 C550.11707707 236.52599776 521.95531393 218.41545491 491.89411855 204.01372004 C490.14238315 203.17107168 488.40078365 202.30744949 486.65974355 201.44291925 C465.66355952 191.25220381 443.62168385 183.9823479 421.06599355 178.1343255 C419.61265615 177.75751642 419.61265615 177.75751642 418.12995839 177.37309504 C407.38936151 174.64583511 396.58192063 172.61475683 385.62849355 170.9468255 C384.11340199 170.71431086 384.11340199 170.71431086 382.56770253 170.47709894 C363.5971472 167.7540953 344.66060627 166.83691078 325.51472402 166.87362909 C323.23595135 166.87059985 320.95717971 166.86670654 318.67840981 166.86203653 C312.48513572 166.85184708 306.29192009 166.85391499 300.0986414 166.85821712 C294.08321371 166.86044507 288.06780117 166.85325026 282.05237868 166.84645687 C268.24819057 166.8312934 254.44402094 166.82950393 240.63982624 166.83197989 C229.97130237 166.83381956 219.30278449 166.83203888 208.63426137 166.82775545 C207.09617239 166.82715302 205.55808342 166.82655182 204.01999444 166.82595185 C201.70161781 166.82504449 199.38324119 166.82413582 197.06486457 166.8232195 C175.53537917 166.81480126 154.00589601 166.81044637 132.4764092 166.81462622 C131.26137682 166.81486078 131.26137682 166.81486078 130.02179834 166.81510008 C125.91722243 166.81590575 121.81264653 166.81675152 117.70807064 166.81761339 C116.89303593 166.81778447 116.07800123 166.81795556 115.23826851 166.81813183 C113.59007331 166.81847849 111.94187811 166.81882702 110.29368292 166.81917742 C84.66520123 166.82453096 59.03675397 166.81661 33.4082787 166.79814386 C4.54636245 166.77737178 -24.31553248 166.76671115 -53.17745662 166.77071935 C-56.26222046 166.77111463 -59.3469843 166.77147619 -62.43174815 166.77181673 C-63.19117075 166.77190746 -63.95059334 166.77199819 -64.73302874 166.77209168 C-76.13737167 166.7732518 -87.54169287 166.76665413 -98.94603038 166.75600481 C-111.93608975 166.74388636 -124.92610167 166.74246953 -137.91616184 166.75479498 C-144.53065685 166.76079221 -151.14507948 166.76188524 -157.7595737 166.74979258 C-196.44444939 166.66363591 -196.44444939 166.66363591 -234.93400645 170.1343255 Z " fill="#000000" transform="translate(926.9340064525604,131.86567449569702)"/>
<path d="M0 0 C5.24679538 0.00893216 10.49356844 0.00037282 15.74036372 -0.00586212 C25.98943934 -0.01529957 36.23844403 -0.00879514 46.48751434 0.00340082 C58.44418282 0.01709332 70.40083484 0.01537664 82.35750917 0.01326749 C103.70128257 0.01008509 125.04502249 0.02170297 146.38878596 0.04133332 C167.06164789 0.0603414 187.7344706 0.06741803 208.40734065 0.06184113 C230.9673453 0.05577306 253.52733277 0.05597867 276.087336 0.06732696 C278.4961772 0.06853415 280.90501839 0.06974013 283.31385958 0.07094491 C284.49879196 0.07154844 285.68372433 0.07215198 286.90456375 0.07277381 C295.22352205 0.07664037 303.54247391 0.07626427 311.86143267 0.07435906 C322.00784326 0.07222935 332.15421965 0.07751986 342.30062064 0.09197261 C347.46959765 0.09917843 352.63852505 0.10332645 357.8075062 0.09872925 C362.55152926 0.09461285 367.29545048 0.09993018 372.03945819 0.11235533 C373.74302809 0.11525091 375.44660779 0.11489861 377.150175 0.11071225 C428.79903447 -0.0045528 474.83263442 17.76258147 512.20250666 53.37751496 C513.03266291 54.14321808 513.86281916 54.90892121 514.71813166 55.69782746 C547.45195919 86.84776011 566.32514265 134.39512545 567.55160856 179.13222897 C567.6185921 183.55552823 567.61829584 187.97726727 567.6065594 192.40095246 C567.61228375 194.39490873 567.61925583 196.38886173 567.62735713 198.38280976 C567.64508239 203.72844062 567.64415881 209.07390549 567.63841474 214.41955674 C567.63529059 218.91877393 567.64145117 223.41796069 567.64745349 227.9171735 C567.66143146 238.5545339 567.65999577 249.19181389 567.64855158 259.82917511 C567.63709592 270.71613204 567.65111872 281.60284187 567.67794806 292.48976624 C567.70028071 301.91312343 567.70670278 311.33640407 567.70087165 320.75978577 C567.69754019 326.35408177 567.69965679 331.94821985 567.71712267 337.54249299 C567.87907102 394.92034572 560.2411882 448.93891052 519.20250666 492.37751496 C518.07288433 493.70693444 516.94771354 495.04015213 515.82750666 496.37751496 C493.62767749 521.66205844 462.37536541 537.44384345 430.66735041 547.15095246 C429.94184992 547.38080842 429.21634943 547.61066437 428.46886408 547.84748566 C426.20250666 548.37751496 426.20250666 548.37751496 423.72716486 548.36652863 C420.60650784 548.46160295 418.91801223 548.78826715 416.20250666 550.37751496 C412.46784811 555.85452485 410.0605967 561.84247506 407.51500666 567.94001496 C406.74509932 569.70358473 405.97129079 571.46545621 405.1937176 573.22565949 C403.60770982 576.82884668 402.04151956 580.43961665 400.49205744 584.0586673 C397.38871092 591.29455902 394.15889185 598.47199442 390.90547907 605.64140046 C389.9764303 607.69951706 389.06143221 609.7633861 388.14903986 611.82893097 C383.1894537 622.96243205 378.7647014 632.19597799 367.51500666 637.69001496 C359.32911272 639.38897408 351.92467057 639.32030299 344.55797541 635.09235871 C336.17798196 628.99150112 330.35203169 619.72354377 324.24938166 611.46735871 C321.42467945 607.65472856 318.52140285 603.91107045 315.57750666 600.19001496 C310.81202605 594.16110809 306.11141991 588.08563304 301.43639338 581.98640168 C299.83006887 579.89188673 298.22068518 577.79973447 296.61095393 575.70783722 C296.14616633 575.10383088 295.68137873 574.49982453 295.20250666 573.87751496 C294.02782391 572.42286237 294.02782391 572.42286237 292.8294102 570.93882287 C291.01596579 568.60569741 289.86984209 566.67499719 288.58062327 563.95243752 C286.33843734 559.77393426 284.35403297 556.78373215 280.20250666 554.37751496 C271.27833738 551.98313458 261.65418442 552.67424457 252.47967875 552.82809603 C248.62929714 552.87830153 244.77930542 552.85290154 240.92873347 552.83678925 C234.26032493 552.81900957 227.59347081 552.8482894 220.92533839 552.90952408 C211.26077359 552.99792677 201.59721961 553.01112709 191.93230477 553.00589682 C176.21866836 552.99913856 160.50573341 553.04809393 144.79235041 553.1343509 C129.58728414 553.21765662 114.38237726 553.28259322 99.17711604 553.31696808 C98.24231755 553.3190927 97.30751906 553.32121732 96.34439334 553.32340632 C86.11510887 553.34613115 75.88582013 553.36371353 65.65652049 553.37789834 C64.30336756 553.37980805 64.30336756 553.37980805 62.92287822 553.38175634 C61.57470992 553.383659 61.57470992 553.383659 60.19930589 553.38560009 C59.30400556 553.38686515 58.40870522 553.38813021 57.48627457 553.38943361 C55.68943016 553.39191894 53.89258561 553.39431023 52.09574094 553.3966061 C41.57660894 553.4103288 31.05777363 553.43932952 20.53878382 553.49657352 C13.92667923 553.53246226 7.31458508 553.55886127 0.70241138 553.57817774 C-3.09988628 553.5898608 -6.90198047 553.6066534 -10.7041744 553.63754952 C-68.23236474 554.09425557 -117.31331653 536.94491437 -158.79749334 496.37751496 C-161.28284858 493.81509444 -163.56928208 491.16529963 -165.79749334 488.37751496 C-166.55288396 487.4481009 -167.30827459 486.51868683 -168.08655584 485.56110871 C-185.1642053 464.1964497 -197.34659295 439.73727146 -204.10999334 413.25251496 C-204.35249822 412.31214386 -204.5950031 411.37177277 -204.84485662 410.40290558 C-208.59916833 394.93991715 -209.09391678 379.71795934 -209.07215154 363.89851105 C-209.07650882 361.78408867 -209.08169532 359.66966785 -209.08763921 357.55524933 C-209.10093362 351.85653623 -209.10161844 346.15788983 -209.09907591 340.45916426 C-209.09799932 335.67865825 -209.10290722 330.89816536 -209.10768133 326.11766219 C-209.11874426 314.82487509 -209.11923258 303.53212125 -209.11316717 292.23933136 C-209.10713464 280.64461185 -209.11942757 269.0500139 -209.14073724 257.45531511 C-209.15843617 247.45217586 -209.16434146 237.44907501 -209.16109949 227.44592071 C-209.1592991 221.49299452 -209.16179675 215.540155 -209.17581403 209.5872432 C-209.18852297 203.9810004 -209.1863267 198.37494494 -209.17340314 192.76870453 C-209.17106566 190.7299834 -209.17366821 188.69124853 -209.18202627 186.65254319 C-209.25059189 168.60358067 -208.02194065 150.45641028 -202.60999334 133.12751496 C-202.30811101 132.13284211 -202.00622869 131.13816926 -201.69519842 130.1133548 C-188.62633723 88.39082282 -161.06783657 53.40732245 -124.79749334 29.37751496 C-123.89643865 28.76649933 -122.99538396 28.15548371 -122.06702459 27.52595246 C-106.92604856 17.69313232 -90.24561093 10.82651032 -72.79749334 6.37751496 C-71.82682928 6.09521027 -70.85616521 5.81290558 -69.85608709 5.52204621 C-47.06226726 -0.86541113 -23.4320594 -0.05473303 0 0 Z " fill="#806CD8" transform="translate(820.7974933385849,611.6224850416183)"/>
<path d="M0 0 C4.44857143 3.40902276 7.50202413 6.69407385 10.6875 11.375 C11.80705078 12.99535156 11.80705078 12.99535156 12.94921875 14.6484375 C20.07391953 26.2922342 21.82656736 38.73678464 18.875 52.0625 C15.1234857 65.28876902 8.22991087 76.32313927 -3.5703125 83.65234375 C-16.29594284 90.71077215 -29.84498544 93.33229098 -44.26953125 90.31640625 C-59.98238566 84.89895573 -70.74507888 74.70921233 -78.46484375 60.2578125 C-82.96577059 49.20571457 -83.28263295 33.29929957 -78.875 22.1875 C-77.97374596 20.42790877 -77.01793379 18.69476575 -76 17 C-75.31357422 15.79537109 -75.31357422 15.79537109 -74.61328125 14.56640625 C-67.45560751 2.93763769 -56.25626502 -6.1223836 -42.8828125 -9.5625 C-27.28125866 -11.93021549 -12.97591412 -9.29976982 0 0 Z " fill="#F3F2F6" transform="translate(826,854)"/>
<path d="M0 0 C10.96462219 7.72375156 19.01168765 18.85034331 21.8828125 32.15234375 C23.91584687 47.21639358 20.8854971 60.44282809 12.21484375 73.0546875 C6.12409635 80.63849749 -0.85329612 85.81354719 -9.79296875 89.5546875 C-10.98986328 90.08255859 -10.98986328 90.08255859 -12.2109375 90.62109375 C-24.3897964 95.02464485 -38.84247767 93.31927173 -50.5234375 88.40625 C-64.89251258 81.39397923 -72.81322612 69.91772369 -77.953125 55.2421875 C-81.23294436 40.84149225 -79.01716524 27.42110105 -71.54296875 14.8671875 C-63.60729304 3.0394925 -53.63265938 -4.0703704 -39.79296875 -7.4453125 C-39.18066406 -7.62835937 -38.56835938 -7.81140625 -37.9375 -8 C-24.60563926 -10.76836452 -11.25126938 -7.30696331 0 0 Z " fill="#F3F2F6" transform="translate(1234.79296875,852.4453125)"/>
<path d="M0 0 C10.15227718 8.55976311 17.0891914 19.63896632 18.56298828 33.02246094 C19.66663312 48.05832454 16.17979216 61.72659621 6.3046875 73.40234375 C-3.49122662 83.76839043 -15.61426446 89.8704742 -29.97387695 90.46899414 C-44.82057481 90.65302356 -57.5123346 85.85246985 -68.47265625 75.68359375 C-79.0642815 64.30646519 -83.0935657 49.88167323 -82.93359375 34.65234375 C-82.02527167 22.5067799 -75.77396098 10.55355283 -67.03515625 2.18359375 C-47.05442431 -14.56854431 -21.10421507 -15.89788889 0 0 Z " fill="#F3F2F6" transform="translate(1032.66015625,855.00390625)"/>
</svg>
